<?xml version="1.0" encoding="utf-8"?>
<!-- Generator: Adobe Illustrator 24.2.0, SVG Export Plug-In . SVG Version: 6.00 Build 0)  -->
<svg version="1.1" id="Layer_1" xmlns="http://www.w3.org/2000/svg" xmlns:xlink="http://www.w3.org/1999/xlink" x="0px" y="0px"
	 viewBox="0 0 1000 833" enable-background="new 0 0 1000 833" xml:space="preserve">
<g>
	<path fill="#12226F" d="M451.6,43.7c17.09-1.24,34.24-1.64,51.39-1.46c15.4-0.13,30.82,0.24,46.16,1.53
		c-9.53,0.98-19.12,0.24-28.66-0.04c-10.42-1.44-20.94-0.81-31.41-0.81c-7.03,0.02-13.99,1.29-21.02,1.17
		c-5.13-0.12-10.35,1.26-15.39-0.09L451.6,43.7z"/>
	<path fill="#12226F" d="M294.51,240.75c0.14,0.31,0.41,0.94,0.55,1.25c0.8,4.79,0.4,9.66,0.44,14.5
		c-0.04,90.68,0.01,181.36-0.03,272.04c-0.01,5.81,0.36,11.67-0.52,17.44l-0.58,0.04c-0.04-44.17-0.01-88.34-0.02-132.51
		C294.45,355.92,294.14,298.33,294.51,240.75z"/>
	<path fill="#12226F" d="M349.71,304.81c7.65-0.3,15.31-0.15,22.97-0.06c0.07,6.04,0.02,12.09-0.01,18.13
		c-0.34,0.01-1.03,0.02-1.37,0.03c-0.23-5.42,0.99-11.05-0.5-16.31c-6.31-1.55-13-0.25-19.46-0.39
		C350.93,305.86,350.12,305.16,349.71,304.81z"/>
	<path fill="#12226F" d="M413.77,556.46c5.51,2.87,9.86,7.57,14.21,11.94c6.88,7.74,15.96,13.13,22.58,21.14
		c-0.12,1.12-0.43,2.2-0.67,3.31c-2.92-0.65-5.9-0.87-8.87-0.81c-5.05,0.17-9.99-1.68-15.05-0.96c-6.27,0.81-12.63,1.15-18.95,0.61
		c-8.63-1.2-17.36-0.55-26.05-0.56c-35.66-0.29-71.25,0.32-106.89-0.1c-7.7,0.15-15.4,1.25-23.08,0.05
		c-18.65-0.02-37.31-0.02-55.97-0.05c-6.36,0.45-12.77-0.46-19.07,0.75c-5.03,0.33-10.22,0.77-15.13-0.61l0.79-0.15
		c8.06-1.22,16.25-0.55,24.37-0.47c21-0.38,42.01-0.06,63.01-0.16c12.67,0.63,25.33-0.29,38.01,0.05
		c39.02-0.02,78.04-0.04,117.07-0.07c7.98-0.17,15.95,0.57,23.92,0.02c7.2,0.19,14.4,0.57,21.58-0.24
		c-5.36-3.63-9.47-8.73-14.44-12.84c-6.84-6.63-13.99-12.93-20.79-19.6L413.77,556.46z"/>
	<g>
		<path fill="#12226F" d="M461.63,670.46c4.53-0.81,9.26,0.1,13.2,2.47c5.4,3.86,5.65,13.56-0.54,16.82
			c-4.6,2.19-10.21,2.08-14.92,0.26c-3.11-1.22-5.03-4.29-5.46-7.51C452.5,677.23,456.35,671.49,461.63,670.46z M455.65,684.64
			c2.58,4.01,7.89,5.47,12.44,5.15c2.76-0.44,6.37-0.84,7.52-3.84c1.19-2.86,3.21-6.81,0.31-9.3c-2.92-3.74-7.73-4.43-11.94-5.82
			C458.03,672.03,454.24,678.89,455.65,684.64z"/>
	</g>
	<path fill="#12226F" d="M586.11,675.25c4.19-6.01,13.04-6.43,18.96-2.87c1.6,0.91,3.71,1.8,3.74,3.98c0.1,0.71,0.32,2.15,0.42,2.87
		c-2.54-2.72-5.11-5.66-8.54-7.25c-4.15-0.84-9.26-0.45-12.05,3.15c-2.94,3.29-2.96,9.57,1.17,11.9c2.73,1.7,5.92,3.41,9.25,2.91
		c2.93-1.03,5.57-2.71,8.34-4.1c0.52-1.08,1.06-2.14,1.6-3.2c0.12,1.27,0.24,2.54,0.38,3.82c-5.35,6.29-16.32,6.75-22.14,1.03
		C585.27,683.7,584.82,679.33,586.11,675.25z"/>
</g>
<g>
	<path fill="#1733B1" d="M468.06,44.09c7.03,0.12,13.99-1.15,21.02-1.17c10.47,0,20.99-0.63,31.41,0.81
		c9.54,0.28,19.13,1.02,28.66,0.04h0.04c3.57,2.06,7.75,2.13,11.73,2.59c14.63,1.29,28.85,5.3,43.45,6.81
		c1.3,0.13,2.63,0.06,3.94-0.16l0.93-0.14c9.82,6.34,22.2,5.36,32.81,9.65c5.65,2.67,11.95,3.19,17.79,5.31
		c5.77,0.92,10.91,3.81,16.53,5.26c8.59,2.01,16.31,6.46,24.47,9.65c7.39,2.81,14.45,6.66,22.32,8.02
		c5.08,1.92,9.75,4.83,14.81,6.83c25.63,13.47,50.28,28.89,72.84,47.08c9.1,7.52,18.43,14.82,26.81,23.16
		c4.15,3.93,8.69,7.51,12.16,12.09c10.39,10.06,19.59,21.21,28.69,32.43c0.04,0.23,0.13,0.7,0.18,0.93
		c0.45,2.14,0.64,4.58,2.41,6.12c3.92,3.99,6.94,8.73,9.59,13.64c0.61-0.01,1.85-0.02,2.47-0.02l0.48-0.01l0.14,1.14
		c0.15,2.56,0.82,5.1,2.44,7.14c3.64,4.94,5.93,10.7,9.51,15.69c3.18,4.27,4.66,9.53,8.05,13.67c-0.02-0.59-0.04-1.78-0.06-2.38
		c4.46,6.54,7.01,14.13,10.45,21.21c1.63,3.7,3.52,7.36,4.37,11.34c0.26,7.2,3.92,13.61,5.61,20.51c2.81,6.54,5.59,13.19,5.91,20.43
		c-0.73-1.98-1.63-3.87-2.56-5.74c-0.9,5.53-0.39,11.12,0.08,16.66c0.34,2.79-1.53,5.1-2.74,7.43c-4.21-10.15-3.85-21.48-7.95-31.64
		c-4.2-11.59-7.74-23.53-13.48-34.47c-0.07,0.69-0.21,2.06-0.27,2.74c-0.55-1.24-1.1-2.46-1.62-3.7c0-2.85-0.15-5.77-1.62-8.29
		c-3.16-5.71-5.06-12.03-8.52-17.58c-3.18-5.2-5.63-10.82-9.22-15.76c-5.35-7.72-10.01-15.94-15.83-23.33
		c-1.11-1.63-2.99-2.37-4.7-3.15c-12.55-16.6-26.63-31.97-41.63-46.38c-8.77-7.95-17.21-16.3-26.76-23.33
		c-10.87-8.17-21.53-16.69-33.2-23.7c-7.88-5.59-16.19-10.55-24.76-14.99c-20.64-12-42.54-21.72-64.85-30.13
		c-2.49-1.88-4.75-4.18-7.72-5.29c-2.52-0.92-5.15-1.42-7.74-2.07c-6.72-1.54-12.71-5.19-19.35-6.96
		c-8.5-2.26-17.12-4.04-25.56-6.52c-3.93-1.15-7.99-1.65-12.03-2.13c-5.42-0.6-10.58-2.5-15.98-3.14
		c-8.72-1.09-17.29-3.08-26.03-3.97c-15.32-1.54-30.66-2.84-46.01-4.04c-6.35-0.4-12.68,0.88-19.02,0.28
		c-15.63-1.86-31.3,0.74-46.9,1.75c-5.52,0.59-11.19,0.39-16.58,1.79c-0.46,0.52-1.37,1.57-1.83,2.09
		c-3.93-1.06-8.03-0.95-12.01-0.28c-15.24,2.7-30.7,4.44-45.61,8.79c-8.51,1.77-16.72,4.69-25.2,6.6
		c-9.54,2.3-18.24,7.15-27.81,9.35c-9.91,2.62-19.02,7.42-28.47,11.27c-24.14,10.6-47.6,22.86-69.5,37.55
		c-1.89,1.33-4.21,1.58-6.43,1.81c-0.12,0.85-0.23,1.7-0.34,2.56c-8.85,6.03-16.9,13.15-25.7,19.25c-4.56,3.03-7.91,7.5-12.43,10.58
		c-2.97,2-6,4.47-6.21,8.36c-9.37,8.73-18.47,17.78-26.92,27.41c0.69-1.17,1.31-2.37,1.93-3.57c-2.93,1.89-5.17,4.55-7.23,7.32
		c-3.54,4.72-8.65,8.04-11.73,13.13c-4.8,7.81-11.69,14.14-15.82,22.39c-4.27,6.5-8.04,13.31-12.29,19.81
		c-1.49-0.19-2.98-0.38-4.46-0.58c-1.37-1.97-3.15-3.57-5.39-4.47c8.5-15.95,19.37-30.4,30.06-44.9
		c13.93-17.92,29.99-34.04,46.51-49.56c6.58-5.79,13.36-11.37,20.31-16.71c5.71-4.62,11.39-9.31,17.59-13.28
		c5.89-3.78,11.32-8.23,17.34-11.81l0.33-0.05c5.73-0.13,9.96-4.3,14.81-6.73c4.29-2.21,7.99-5.44,12.42-7.41
		c5.18-2.38,9.84-5.77,15.12-7.94c2.04-1.04,4.33-0.25,6.47-0.07c0.2-1.31,0.4-2.61,0.61-3.91c9.51-3.53,18.23-8.87,27.84-12.17
		c12.21-4.02,23.91-9.59,36.47-12.5c7.99-3.02,16.31-4.92,24.65-6.67c6.34-3.02,13.44-3.3,20.02-5.58
		c4.52-1.27,9.15-2.12,13.68-3.35c8.79-0.75,17.27-3.33,26.07-4.08c9.07-2.49,18.86-1.45,27.66-4.91l0.69,0.16
		C457.71,45.35,462.93,43.97,468.06,44.09z"/>
	<path fill="#1733B1" d="M251.57,430.95c2.86-2.33,6.28-3.74,9.5-5.47c0.04,8.94-0.13,17.87,0.17,26.8
		c0.71,0.11,2.13,0.33,2.84,0.44c-3.09,1.45-4.9,4.56-7.96,6.02c-7.86,4.22-15.57,8.82-22.54,14.4c-2.07-4.22-0.74-9.11-1.06-13.63
		c0.38-5.6-0.67-11.4,0.46-16.87C238.67,437.98,245.69,435.35,251.57,430.95z"/>
</g>
<g>
	<path fill="#1D2B86" d="M433.86,45.48c6.03-0.62,12.03-1.83,18.12-1.64c-8.8,3.46-18.59,2.42-27.66,4.91
		c-8.8,0.75-17.28,3.33-26.07,4.08c-1.53-0.16-3.06-0.34-4.58-0.53c0.57-0.25,1.72-0.74,2.29-0.99c1.97-0.12,3.96-0.21,5.92-0.6
		C412.39,48.18,423.16,46.92,433.86,45.48z"/>
	<path fill="#1D2B86" d="M549.19,43.77c12.72,0.37,25.21,3.11,37.83,4.52c7.5,1.23,15.02,2.5,22.41,4.3l-1.12,0.42
		c-1.31,0.22-2.64,0.29-3.94,0.16c-14.6-1.51-28.82-5.52-43.45-6.81C556.94,45.9,552.76,45.83,549.19,43.77z"/>
	<path fill="#1D2B86" d="M409.37,248.39l0.73-1.18c0.41,3.45,0.28,6.93,0.22,10.4c-2.15,9.14-9.56,15.99-18.2,19.11
		c-2.67,0.51-5.31,1.35-8.06,1.36c-11.52,0.04-23.04,0.01-34.56,0c-0.13-6.69-0.06-13.39-0.01-20.08c-1.67-0.04-3.34-0.08-5-0.12
		c-0.04-3-0.02-6,0.01-9c0.76,0.15,2.27,0.44,3.03,0.59c-0.53,1.51-1.06,3.02-1.58,4.54c1.56,0.88,3.23,1.64,4.61,2.81
		c1.65,6.26-0.81,12.9,1.09,19.11c1.48,1.28,3.52,0.79,5.3,0.77c8.66-0.78,17.38-0.68,26.07-0.68c5.28,0.03,10.16-2.3,14.71-4.73
		c4.01-1.96,5.73-6.37,8.42-9.67C409.37,257.97,408.41,252.81,409.37,248.39z"/>
	<path fill="#1D2B86" d="M463.64,322.98c20.35-0.14,40.72-0.17,61.07,0.01c2.04-0.1,1.35,2.22,1.54,3.48c0.01,16-0.02,32,0,47.99
		c0.03,1.53-0.31,3.03-0.62,4.52c-9.31-0.1-18.63-0.08-27.94,0.01c-9.17,7.69-16.65,17.75-19.51,29.52
		c-1.79,8.97-3.48,17.96-5.35,26.92c-1.13,11.29-3.64,22.41-4.36,33.74c-0.41,1.59-0.91,3.17-1.33,4.77
		c-0.79-9.77,1.61-19.32,2.45-28.99c1.78-11.54,4.3-22.96,6.25-34.47c0.27-7.67,4.67-14.15,8.57-20.44
		c2.89-4.69,7.3-8.21,10.03-13.02c7.17,1.27,14.43,0.58,21.65,0.3c2.03,0.34,2.15-2.26,3.25-3.39c1.65,0.63,2.36,3.38,4.49,2.7
		c1.04-6.66,0.34-13.43,0.53-20.15c-0.15-8.67,0.39-17.35-0.32-26.01c-0.15-1.84-0.02-3.68,0.18-5.5
		c-18.05-0.83-36.14-0.05-54.2-0.42c-2.54-0.48-4.91,1.33-4.94,3.94c0.37,40,0.02,80.04,0.23,120.05c-0.17,13.47-0.63,27,0.68,40.42
		c0.09,1.56-1.07,2.63-2,3.72C463.56,436.12,464.11,379.54,463.64,322.98z"/>
</g>
<g>
	<path fill="#213689" d="M454.05,54.31c15.6-1.01,31.27-3.61,46.9-1.75c6.34,0.6,12.67-0.68,19.02-0.28
		c15.35,1.2,30.69,2.5,46.01,4.04c8.74,0.89,17.31,2.88,26.03,3.97c5.4,0.64,10.56,2.54,15.98,3.14c4.04,0.48,8.1,0.98,12.03,2.13
		c8.44,2.48,17.06,4.26,25.56,6.52c6.64,1.77,12.63,5.42,19.35,6.96c2.59,0.65,5.22,1.15,7.74,2.07c2.97,1.11,5.23,3.41,7.72,5.29
		c-20.02-7.51-40.52-13.73-61.38-18.41c-13.18-3.33-26.53-5.85-39.97-7.79c-14.33-1.9-28.66-4.06-43.11-4.6
		c-23.9-2.32-48.03-2.22-71.93,0.13c-9.51,0.07-18.89,1.75-28.36,2.46c0.46-0.52,1.37-1.57,1.83-2.09
		C442.86,54.7,448.53,54.9,454.05,54.31z"/>
</g>
<g>
	<path fill="#28388C" d="M393.11,52.23l0.56,0.07c1.52,0.19,3.05,0.37,4.58,0.53c-4.53,1.23-9.16,2.08-13.68,3.35
		c-6.58,2.28-13.68,2.56-20.02,5.58c-8.34,1.75-16.66,3.65-24.65,6.67c-12.56,2.91-24.26,8.48-36.47,12.5
		c-9.61,3.3-18.33,8.64-27.84,12.17c-0.21,1.3-0.41,2.6-0.61,3.91c-2.14-0.18-4.43-0.97-6.47,0.07c-5.28,2.17-9.94,5.56-15.12,7.94
		c-4.43,1.97-8.13,5.2-12.42,7.41c-4.85,2.43-9.08,6.6-14.81,6.73c14.2-9.17,29.01-17.42,44.03-25.19
		c16.7-7.94,33.64-15.43,51.04-21.72C344.76,64.15,368.73,57.21,393.11,52.23z"/>
</g>
<g>
	<path fill="#283998" d="M609.24,52.87c5.11-0.09,9.87,2.1,14.83,3.02c18.1,3.98,35.75,9.68,53.35,15.42
		c12.57,4.42,24.73,9.9,37,15.08c2.92,1.42,6.16,2.32,8.74,4.37c-7.87-1.36-14.93-5.21-22.32-8.02c-8.16-3.19-15.88-7.64-24.47-9.65
		c-5.62-1.45-10.76-4.34-16.53-5.26c-5.84-2.12-12.14-2.64-17.79-5.31C631.44,58.23,619.06,59.21,609.24,52.87z"/>
</g>
<g>
	<path fill="#253485" d="M423.63,57.91c3.98-0.67,8.08-0.78,12.01,0.28c-10.84,1.8-21.77,3.09-32.58,5.13
		c-8.32,1.81-16.67,3.46-24.92,5.58c-35.28,8.15-69.39,20.88-101.9,36.73c-24.05,11.94-47.21,25.8-68.54,42.13
		c-11.17,8.04-21.83,16.76-31.77,26.27c0.21-3.89,3.24-6.36,6.21-8.36c4.52-3.08,7.87-7.55,12.43-10.58
		c8.8-6.1,16.85-13.22,25.7-19.25c0.11-0.86,0.22-1.71,0.34-2.56c2.22-0.23,4.54-0.48,6.43-1.81c21.9-14.69,45.36-26.95,69.5-37.55
		c9.45-3.85,18.56-8.65,28.47-11.27c9.57-2.2,18.27-7.05,27.81-9.35c8.48-1.91,16.69-4.83,25.2-6.6
		C392.93,62.35,408.39,60.61,423.63,57.91z"/>
</g>
<g>
	<path fill="#1C2E7E" d="M294.56,179.26c38.48-0.03,76.96-0.03,115.44-0.01c4.9-0.6,7.7,4.08,10.91,6.87
		c-3.67,0.23-5.9-3.37-9.24-4.27c-4.8-1.16-9.79-0.49-14.68-0.59c-31.31-0.05-62.62,0.16-93.93-0.18c-1.86,0.13-3.91-0.07-5.55,0.94
		c-1.55,0.92-1.19,2.94-1.4,4.45c-0.06,13.24-0.63,26.49,0.44,39.71c-0.75,0.57-1.49,1.15-2.23,1.73
		C294.45,211.69,294.01,195.46,294.56,179.26z"/>
	<path fill="#1C2E7E" d="M878.65,213.28c5.45,6.08,9.81,13.05,14.47,19.74c-0.62,0-1.86,0.01-2.47,0.02
		c-2.65-4.91-5.67-9.65-9.59-13.64C879.29,217.86,879.1,215.42,878.65,213.28z"/>
	<path fill="#1C2E7E" d="M65.33,507.5c3.63,5.44,3.45,12.31,6.65,17.93c1.83,3.39,2.73,7.29,5.25,10.29c0.76,4.09,2.51,8,2.48,12.23
		l-0.79-0.04c-1.61-6.01-5.03-11.33-7.04-17.2c-2.2-6.69-5.35-13.1-6.76-20.02C65.17,509.89,65.28,508.29,65.33,507.5z"/>
	<path fill="#1C2E7E" d="M912.09,564.46c2.46-4.14,3.67-9.2,7.56-12.33c-3.18,8.66-8.06,16.6-12.53,24.65
		c-4.76,8.43-9.45,16.95-15.48,24.56c-7.04,10.44-14.29,20.8-22.76,30.14c-6.91,8.1-13.77,16.29-21.57,23.56
		c0.34-3.67,3.6-5.81,5.92-8.29c4.1-3.95,7.03-8.92,11.05-12.94c7.88-7.86,13.91-17.29,21.13-25.7c4.28-5.86,8.16-12.01,12.12-18.08
		c1.63-2.21,3.23-4.47,4.22-7.06C904.29,576.31,908.99,570.83,912.09,564.46z"/>
	<path fill="#1C2E7E" d="M187.77,685.36c5.65,1.92,9.92,6.24,14.76,9.55c4.81,3.93,10.18,7.08,15.1,10.87
		c4.64,3.6,10.01,6.08,14.93,9.28c7.51,4.43,14.51,9.83,22.64,13.17c4.36,1.76,8.05,4.79,12.4,6.59c2.99,1.24,5.93,2.63,8.73,4.28
		c4.94,2.93,10.44,4.72,15.49,7.46c6.25,3.33,13.45,4.6,19.31,8.72c-0.59,0.01-1.77,0.01-2.36,0.01c-5.82-1.71-11.2-4.71-16.92-6.74
		c-19.96-9.18-39.77-18.87-58.32-30.69c-10.32-5.7-19.75-12.82-29.42-19.51C198.57,694.14,192.76,690.22,187.77,685.36z"/>
	<path fill="#1C2E7E" d="M474.8,703.37c1.64-2.43,2.34-5.63,5.09-7.16c-0.58,3.36-1.85,6.55-3.65,9.44
		c-6.58,3.37-16.9,4.93-21.18-2.67c-3.41,0.43-6.91,1.2-10.31,0.3c-0.48-0.44-1.45-1.3-1.93-1.74c4.26-0.29,8.59-0.28,12.8,0.53
		c3.56,1.44,6.31,5.16,10.51,4.83C469.24,706.59,472.43,705.45,474.8,703.37z"/>
</g>
<g>
	<g>
		<path fill="#1930B0" d="M297.51,182.02c1.64-1.01,3.69-0.81,5.55-0.94c31.31,0.34,62.62,0.13,93.93,0.18
			c4.89,0.1,9.88-0.57,14.68,0.59c3.34,0.9,5.57,4.5,9.24,4.27c12.3,11.4,24.57,22.81,36.75,34.34c0.52,4.05,4.06,6.98,7.44,8.82
			c5.54,1.25,11.28,0.3,16.91,0.44c120.01-0.24,240.02,0.17,360.02-0.21c2.97,0.31,6.44-0.49,9.09,1.06
			c0.74,12.95,0.14,25.97,0.34,38.95c-0.03,69.32,0.03,138.64-0.01,207.95c0.16,5.52-1.35,11.77,2.53,16.4
			c12.87-2.71,26.02-1.61,39.06-1.82c8.66,0.02,17.32-0.01,25.98-0.09c2.86-0.09,5.53,1.07,8.29,1.67
			c3.59-4.26,4.76-10.08,6.11-15.37c2.09-11.19,3.51-22.48,4.97-33.76c0.5-13.46-0.62-26.92-0.66-40.38
			c1.3-9.88-0.47-19.78-1.05-29.65c-0.11-4.86-2.24-9.46-1.88-14.36c1.21-2.33,3.08-4.64,2.74-7.43
			c-0.47-5.54-0.98-11.13-0.08-16.66c0.93,1.87,1.83,3.76,2.56,5.74c2.29,7.02,1.79,14.91,5.63,21.37l-0.07,0.33
			c-0.98,3.66-0.13,7.42,0.39,11.07c3.63,22.42,3.53,45.27,1.76,67.87c-0.13,8.7-2.49,17.15-3.1,25.81
			c-0.51,2.91-0.86,6.48-3.44,8.35c-0.41-6.09-0.45-12.72-0.66-19.04c-0.24,7.91-2.15,15.65-2.27,23.57
			c0.83-1.05,1.15-2.78,2.53-3.26c1.94,4.85-0.3,9.99-1.37,14.79c-3.58,15.14-9.42,29.59-15.07,44.04
			c-1.24,2.87-1.82,5.95-1.98,9.06c-0.31,2.1-1.4,3.98-2.21,5.92c-0.13,0.12-0.38,0.37-0.51,0.49c-3.89,3.13-5.1,8.19-7.56,12.33
			c-3.1,6.37-7.8,11.85-10.34,18.51c-0.99,2.59-2.59,4.85-4.22,7.06c-3.96,6.07-7.84,12.22-12.12,18.08
			c-7.22,8.41-13.25,17.84-21.13,25.7c-4.02,4.02-6.95,8.99-11.05,12.94c-2.32,2.48-5.58,4.62-5.92,8.29
			c-0.01,0.44-0.18,0.69-0.52,0.74c-0.54,0.04-1.6,0.13-2.13,0.18c-5.18,3.11-8.04,9.06-13.8,11.38c-3.2,5.12-8.49,8.25-12.83,12.28
			c-5.42,4.99-11.99,8.51-17.39,13.52c-8.29,7.63-18.55,12.6-27.31,19.59c-5.38-0.53-7.95,4.92-12.31,6.91
			c-5.85,2.97-11.1,6.95-16.93,9.94c-8.42,4.41-17.08,8.34-25.61,12.53c-11.45,6.76-24.53,9.81-36.67,15.01
			c-6.16,1.31-11.52,4.89-17.74,5.94c-5.26,1.28-9.98,4.17-15.29,5.3c-11.68,2.72-23.1,6.54-34.94,8.52
			c0.86,0.39,1.74,0.77,2.62,1.15l0.44,0.19c-3.31,0.8-6.63,1.57-9.98,2.15c-19.57,3.5-39.14,7.28-59.01,8.53
			c-8.59,0.77-17.22,1.21-25.83,1.36c-11.7-0.87-23.44-0.02-35.15-0.46c-6.54-0.56-13.03-1.63-19.61-1.63
			c-11.16-0.03-22.27-1.25-33.3-2.85c-3.55-0.51-7.15-0.33-10.71-0.21c-1.81-0.03-3.61-0.22-5.41-0.33l-0.69-0.52
			c-7.44-1.1-14.85-2.38-22.23-3.79c-14.61-2.79-29.04-6.48-43.35-10.49c-14.41-4.5-29.05-8.54-42.86-14.69c0.59,0,1.77,0,2.36-0.01
			c-5.86-4.12-13.06-5.39-19.31-8.72c-5.05-2.74-10.55-4.53-15.49-7.46c-2.8-1.65-5.74-3.04-8.73-4.28
			c-4.35-1.8-8.04-4.83-12.4-6.59c-8.13-3.34-15.13-8.74-22.64-13.17c-4.92-3.2-10.29-5.68-14.93-9.28
			c-4.92-3.79-10.29-6.94-15.1-10.87c-4.84-3.31-9.11-7.63-14.76-9.55c-5.34-2.96-9.34-7.77-14.16-11.45
			c-6.1-5.94-12.78-11.25-18.63-17.44c-10.04-9.65-19.07-20.26-28.05-30.88c-7.68-9.82-14.66-20.17-22.08-30.18
			c-8.74-15.12-18.08-29.98-25-46.07c-0.03-0.35-0.1-1.04-0.14-1.39c0.03-4.23-1.72-8.14-2.48-12.23c-2.52-3-3.42-6.9-5.25-10.29
			c-3.2-5.62-3.02-12.49-6.65-17.93c-0.05,0.79-0.16,2.39-0.21,3.19c-0.41-0.84-0.72-1.71-0.94-2.6c0.16-3.07,0.7-6.18,0.2-9.24
			c-0.74-2.27-2.64-3.89-4.13-5.66v-0.47c0.22-9.26-2.88-18.15-4.29-27.22c-1.05-8.12-1.42-16.39-3.43-24.35
			c-0.22,4.23,0.15,8.46,0.6,12.67c-3.27-17.9-2.34-36.17-2.28-54.27c1.46-22.69,5.29-45.18,10.91-67.2
			c2.8-11.82,7.19-23.18,11.59-34.48c6.26-14.43,12.41-28.97,20.67-42.4c2.24,0.9,4.02,2.5,5.39,4.47c1.48,0.2,2.97,0.39,4.46,0.58
			c-3.79,5.36-5.84,11.67-9.27,17.24c-5.78,11.92-10.81,24.21-15.5,36.6c-5.73,14.82-8.72,30.47-12.16,45.92
			c-1.6,10.08-4.24,20.3-2.58,30.55c-2.66,30.62-0.35,61.59,6.31,91.59c-0.77,3-0.87,6.66,1.4,9.07c3.49,1.2,7.3,0.74,10.92,0.63
			c8.99-0.76,18.01-0.36,27.02-0.43c11.35,0.1,22.7-0.12,34.04-0.02c2.77-0.15,5.27,1.08,7.61,2.41c-0.08-1.78-0.16-3.55-0.26-5.31
			c-2.93-2.58-1.62-6.88-1.89-10.3c0.05-76.34-0.01-152.68,0.03-229.03c-0.01-6.58-0.2-13.16,0.12-19.74
			c1.32,0.59,2.65,1.2,3.98,1.79c2.46-2.5,6.17-1.81,9.34-2c38.35-0.1,76.7-0.01,115.04-0.06c5.8-0.14,11.8,1.7,17.4-0.55
			c-6.42-1.34-12.95-0.15-19.43-0.2c-37.01-0.01-74.03,0-111.05,0.02c-5.76-0.09-11.5-0.59-17.25-0.67
			c48.87-0.28,97.75-0.03,146.63-0.12c0.74-0.58,1.48-1.16,2.23-1.73c-1.07-13.22-0.5-26.47-0.44-39.71
			C296.32,184.96,295.96,182.94,297.51,182.02z M308.5,193.88c0.03,115.75,0.05,231.51-0.02,347.26
			c34.18,0.1,68.36,0.03,102.53,0.03c1.14-0.11,2.17,0.16,3.1,0.81c-33.68,0.09-67.39,0.04-101.08,0.1
			c-1.46,0.12-2.9,0.34-4.33,0.67c4.99,1.3,10.21,0.16,15.3,0.48c20.33,0.79,40.67-0.03,61,0.37c9.31-0.26,18.62,0.19,27.91-0.21
			c2.82,2.46,5.38,5.2,8.1,7.77c-0.6,1.15-1.98,2.22-1.44,3.68c1.98,0.19,3.97,0,5.96-0.07c2.26,2.75,5.22,4.87,7.15,7.91
			c4.08,2.07,6.63,6.02,10.02,8.96c3.21,3.19,7.54,5.68,9,10.24c6.05,1.59,9.73,6.92,14.13,10.93c7.06,0.25,14.1-0.22,21.14-0.73
			c114.66,0.05,229.32-0.03,343.97,0.03c2.93-0.15,5.84,3.18,8.58,0.82c2.53-3.91,2.26-8.88,1.98-13.33
			c-0.11-2.24-2.64-2.94-4.49-2.75c-114,0.05-228.01,0-342.02,0.02c-9.61,0.21-19.17-0.82-28.78-0.84c-0.04-2.34-0.07-4.68-0.1-7.01
			c25.98-1.13,51.98-0.51,77.97-0.71c97.65,0.14,195.31-0.12,292.96,0.13c4.28-0.71,3.54-5.75,3.4-8.97
			c-0.28-2.13-0.4-5.65-3.4-5.42c-121.03,0.12-242.07-0.07-363.1,0.08c-2.75-0.37-7.19,1.31-8.28-2.3c-1.16-2.46,1.95-4.66,4.28-4
			c115-0.04,230.01-0.02,345.02-0.01c7.73,0.16,15.52-0.63,23.18,0.76c1.32,0.41,2.41-0.97,2.53-2.15c1.18-4.11,0.76-8.41-0.22-12.5
			c-11.83-0.43-23.68-0.21-35.52-0.25c-105.3,0.06-210.59-0.03-315.89,0.03c-7.64-0.35-15.3-0.3-22.93,0.19
			c-0.01-1.43-0.01-2.86,0-4.28c3.29-0.38,6.6-0.54,9.91-0.35c11.32,0.62,22.66,0.22,34,0.35c106.34,0.03,212.69-0.07,319.03,0.04
			c3.78-0.16,9.81,1.61,11.37-3.12c-0.21-79.32-0.01-158.71-0.07-238.05c-0.15-0.84-0.45-2.51-0.61-3.34l-0.25,0.8
			c-41.16-0.21-82.33-0.03-123.49-0.09c-58.45,0.05-116.91-0.1-175.37,0.07c-3.43,3.5-7.11,6.74-10.59,10.18
			c-0.65,0-1.93,0.01-2.58,0.02c-0.05-3.5-0.04-6.99-0.08-10.48l1.09-0.08c-1.53-1.22-3.24-2.7-5.35-2
			c-2.93,0.73-6.34-0.87-8.86,1.19c0.99-2.03,0.25-4.29-0.07-6.38c0.88,0.62,1.76,1.49,2.92,1.49c3.47,0.09,7.08,0.61,10.43-0.59
			c-0.1-3.89,1.83-7.95,0.22-11.66c1.59,0.13,2.97,0.92,4.12,2.01c3.01,2.71,5.86,5.59,8.74,8.45
			c99.36,0.01,198.73-0.07,298.09,0.04c0.03-12.06,0.05-24.12-0.01-36.17l-0.96,0.04l0.92-1.61c-4.21-0.82-8.45,0.01-12.68,0.03
			c-120,0.05-240-0.04-360,0.04c-4.07-2.46-6.92-7.54-12.3-8.17c-13.84-12.69-27.6-25.44-41.25-38.34
			C377.79,193.73,343.14,193.85,308.5,193.88z M275.93,238.85c-35.31-0.01-70.63,0.03-105.95-0.01c-3.77-0.05-7.54,0-11.31,0.22
			c-0.42,1.45-0.85,2.89-1.27,4.34c1.46,2.44,2.07,5.24,1.92,8.07c0.09,77.01-0.04,154.02,0.05,231.03
			c-0.03,4.87-1.41,9.68-0.82,14.57c1.39,10.1,0.56,20.31,0.87,30.46c0.37,5.76-2.77,11.29-1.28,17.04c0.14,1.94,1.75,3.8,3.82,3.5
			c14.35-0.06,28.7-0.03,43.05-0.05c6.07-0.6,12.18,0.27,18.23-0.64c0.41-10.87-0.26-21.76-0.14-32.64l0.94-1.02
			c2.45,0.17,4.9,0.21,7.35,0.28c1.81-4.59,0.6-9.64,1.01-14.44c0.4-5.05-0.65-10.25,0.38-15.2c3.58-2.52,7.17-5.17,11.27-6.79
			c3.36-0.98,5.44-3.93,8.28-5.77c4.02-2.43,7.67-6.01,12.61-6.33c0.34,8.67,0.74,17.44-0.48,26.07c-0.2,5.18-6.35,6.06-9.67,8.79
			c-3.74,3.51-8.7,5.16-12.73,8.27c-2.33,1.88-5.36,2.52-7.78,4.21c-1.94,4.25-0.9,9.2-1.25,13.75c0.15,6.65-1.03,13.3-0.36,19.93
			c0.32,0.31,0.96,0.93,1.28,1.24c19.03,0.22,38.1-0.19,57.14,0.07c1.51-0.05,3.15,0.09,4.52-0.69c1-1.31,0.82-3.03,0.8-4.57
			c-0.18-4-0.57-7.99-0.59-11.99c0.01-88.33-0.01-176.67-0.01-265c0.09-7.97,0.71-15.93,0.44-23.9l-1.19,0.35
			c-0.14-0.31-0.41-0.94-0.55-1.25c-0.21-0.65-0.62-1.95-0.83-2.6C287.79,238.87,281.85,238.85,275.93,238.85z M384.96,553.64
			c-75.21,0.09-150.42-0.33-225.61,0.09c-1.57,3.78-2.36,7.83-2,11.93c0.26,0.15,0.77,0.46,1.03,0.62c1.55,3.41,5.64,2.42,8.67,2.61
			c25.32-0.54,50.65-0.21,75.98-0.31c54.65,0.05,109.31-0.03,163.96,0.02c5.71-0.61,8.28,5.52,13.07,7.34
			c-1.92,0.74-3.94,1.28-6.02,1.14c-80.35-0.03-160.71,0.1-241.07-0.05c-4.08,0.31-8.63-1.1-12.33,1.17
			c0.38,4.26-0.69,8.75,0.98,12.82l-0.79,0.15c4.91,1.38,10.1,0.94,15.13,0.61c6.3-1.21,12.71-0.3,19.07-0.75
			c18.66,0.03,37.32,0.03,55.97,0.05c7.68,1.2,15.38,0.1,23.08-0.05c35.64,0.42,71.23-0.19,106.89,0.1
			c8.69,0.01,17.42-0.64,26.05,0.56c6.32,0.54,12.68,0.2,18.95-0.61c5.06-0.72,10,1.13,15.05,0.96c2.97-0.06,5.95,0.16,8.87,0.81
			c0.24-1.11,0.55-2.19,0.67-3.31c-6.62-8.01-15.7-13.4-22.58-21.14c-4.35-4.37-8.7-9.07-14.21-11.94l0.58,1.25
			c-0.49-0.47-1.46-1.4-1.95-1.87h-0.24c-0.07-2.14-2.04-3.39-4.03-2.92C400.46,554.15,392.69,553.46,384.96,553.64z M400.31,665.72
			c-4.36,3.99-9.68,7.88-15.91,7.31c-0.81,1.32-1.6,2.65-2.38,4c-2.5,0.75-1,4.29-0.67,6.12c2.73-0.84,5.52-1.49,8.26-2.31
			c3.26,2.42,6.82-0.95,9.95-2.02c1.4,2.86-0.9,6.16,0.89,8.85c0.27-3.63,0.7-7.29,0.43-10.92c0.49,1.17,0.71,2.41,0.65,3.71
			c-0.05,11.2,0,22.4-0.02,33.6c4.36-0.06,8.73-0.08,13.09-0.03c0.13-16.37-0.03-32.75,0.07-49.13c-3.53-0.05-7.06-0.09-10.58,0.14
			l0.46-0.53c3.55-0.04,7.1-0.01,10.65-0.01c0.26,16.71-0.17,33.43-0.02,50.15c-4.43-0.19-8.87-0.15-13.26,0.43
			c3.67,0.44,7.34,1.15,11.06,1.04c2.19-0.1,3.68-2.18,4.48-4.02c0.25-5.6-1.75-11.02-1.7-16.61c0.02-9.36-0.1-18.72,0.14-28.08
			c0.22-2.05-0.53-3.92-1.9-5.4C409.47,663.37,403.81,661.87,400.31,665.72z M584.97,664.57c-3.94,1.36-7.6,3.59-10.75,6.32
			c-3.2,4.24-5.03,10.14-2.49,15.18c1.77,4.95,6.92,7.06,11.2,9.34c4.26,2.53,9.43,1.22,14.13,1.61c3.98,0.44,7.7-1.1,11.09-3
			c1.02,0.84,2.04,1.69,3.07,2.55c-0.55,2.86-1.07,6-3.15,8.21c-3.75,3.4-9.15,4.06-13.99,3.45c-2.93-0.39-5.81-1.85-7.31-4.48
			l1.4-0.12c-4.26-1.33-8.85-0.43-13.21-0.16c-0.92,2.54,1.81,5.02,3.96,6.15c2.12,1.48,4.58,2.4,7.11,2.94
			c0.04,2.18,2.52,2.18,4.08,2.45c8.37,0.51,17.33,0.66,24.9-3.53c5.89-2.66,10.18-8.52,10.88-14.95c-0.62,0.68-1.2,1.39-1.74,2.13
			c1.6-4.99,1.32-10.29,1.11-15.45c1.13,3.65,1.12,7.49,1.21,11.28c0.76-7.04,0.1-14.38-2.75-20.9c-3.89-4.32-9.29-7.02-14.64-9.14
			C601.13,662.74,592.93,663.3,584.97,664.57z M456.42,664.11c-4.82,1.76-10.9,2.27-13.84,7.05c-2.81,4.17-4.31,9.62-2.77,14.53
			c3.02,6.43,9.64,10.51,16.59,11.33c7.25,2.78,14.98,0.27,21.44-3.31c0.55,0.44,1.65,1.33,2.2,1.78l-0.15,0.72
			c-2.75,1.53-3.45,4.73-5.09,7.16c-2.37,2.08-5.56,3.22-8.67,3.53c-4.2,0.33-6.95-3.39-10.51-4.83c-4.21-0.81-8.54-0.82-12.8-0.53
			c0.48,0.44,1.45,1.3,1.93,1.74c-0.33,0.59-1,1.78-1.33,2.37c-0.35-0.28-1.03-0.86-1.37-1.14c0.68,2.65,1.99,5.25,4.56,6.52
			c8.02,5.54,18.27,4.92,27.45,3.53c2.97-0.65,6.46-1.02,8.38-3.68c-1.25,0.18-2.5,0.42-3.73,0.71c5.8-1.98,10.99-6.05,13.53-11.71
			c2.32-5.94,2.23-12.48,1.11-18.66c0.47,0.76,0.97,1.52,1.5,2.26c-0.07-6.57-3.57-13.26-9.66-16.11
			C476.52,662.3,466.02,662.87,456.42,664.11z M517.74,665.83c-2.13,7.81-4.89,15.43-7.35,23.14c0,0.53,0,1.59,0,2.12
			c3.21-0.06,6.43,0.06,9.65-0.06c5.13-0.18,9.8-3.34,14.98-2.89c3.67,0.89,7.99,1.85,10.03,5.38c1.95,2.68,0.34,6.06,0.13,9.02
			c-4.78,5.14-12.83,5.89-18.86,2.62c-2.38-1.71-3.41-5.31-6.51-5.9c-3.82,0.67-7.67,1.37-11.55,0.68c0,0.3-0.01,0.91-0.02,1.21
			c4.15,0.05,8.3,0.12,12.44,0.41l0.22,0.33c-3.91,0.02-7.81,0.24-11.71,0.25c0.03,0.68,0.1,2.03,0.14,2.71
			c-0.5-0.11-1.5-0.33-1.99-0.44c1.29,2.18,2.16,4.93,4.56,6.17c4.38,2.28,9.12,4.11,14.11,4.39c4.33,0.27,8.7,1.5,13.01,0.42
			c5.45-1.23,11.49-1.33,16.12-4.83c2.41-1.85,4.67-3.98,6.39-6.49c0.57-1.56-0.04-3.24-0.18-4.82c0.2-1.67,0.2-3.36-0.13-5
			c0.53,1.38,1.07,2.78,1.62,4.17c-0.07-4.82-1-10.5-5.58-13.13c-4.26-2.29-8.85-3.92-12.97-6.48c-4.24,2.67-9.47,1.85-14.22,2.17
			c-1.71,0.23-3.02-1.03-4.37-1.83c0.51-2.37,1.33-4.65,2.04-6.94c9.97-0.03,19.94-0.08,29.91,0.01c-0.02-2.19-0.02-4.37,0.02-6.54
			c-4.57,0.01-9.14,0.03-13.7-0.07C535.22,665.82,526.48,665.42,517.74,665.83z M399.22,701.73c0.49,3.03,0.35,6.1-0.48,9.06
			c-0.58,1.62,1.13,2.73,1.93,3.92c0.78-4.37,0.57-8.81,0.19-13.21C400.45,701.56,399.63,701.68,399.22,701.73z"/>
	</g>
	<path fill="#1930B0" d="M465.51,227.88c74.85,0.08,149.7,0.01,224.55,0.03c54.41,0.1,108.81-0.19,163.21,0.15
		c-8.74,0.62-17.51,0.67-26.27,0.53c-118-0.15-236,0.17-354-0.16C470.49,228.44,467.97,228.34,465.51,227.88z"/>
	<path fill="#1930B0" d="M674.85,325.1c0.39-0.52,1.15-1.55,1.54-2.06c-0.14,15.21,0.24,30.45-0.18,45.65c-1,2.6-1.58,5.45-3.2,7.76
		c-1.44,0.86-3.22,0.54-4.8,0.53c-6.19-0.56-12.46-1.05-18.63-0.05c-2.77,0.43-5.41,1.71-7.25,3.85c-3.6,4.14-7.85,7.85-10.26,12.88
		c-4.14,7.13-5.5,15.37-7.65,23.21c-1.11,8.67-3.1,17.18-4.19,25.85c-2.07,8.29-1.6,16.96-3.75,25.22
		c-2.35-8.02,0.78-16.26-0.53-24.38c-0.82-12.33-0.05-24.71-0.35-37.06c0.24-27.17-0.38-54.35,0.37-81.51
		c15.33-0.52,30.67,0.03,46.01-0.23C666.27,324.66,670.56,324.8,674.85,325.1z"/>
	<path fill="#1930B0" d="M539.45,327.23c2.53-1.77,5.32-3.49,8.56-3.2c13.3,0.26,26.62,0.47,39.93,0.22
		c3.57-0.11,7.12,0.25,10.66,0.73c0.97,3.08,1.92,6.25,1.63,9.52c-0.94,11.27,0.84,22.59-0.38,33.85c-0.39,2.81-0.15,5.89-1.57,8.44
		c-8.57,1.18-17.36-0.55-25.88,1.17c-2.98,0.49-5.09,2.76-6.84,5.02c-2.84,3.76-6.72,6.91-8.11,11.58c0.55-0.32,1.65-0.97,2.2-1.29
		c-0.39,0.85-0.79,1.71-1.19,2.57l-0.62,0.34c-1.58,0.74-3.15,1.73-3.58,3.55c-3.56,10.47-5.15,21.46-7.7,32.18
		c-2.01,8.02-0.72,16.45-2.85,24.46c-2.24,7.8-0.81,16.11-2.99,23.93c-0.5,0.57-1.5,1.72-2,2.3c-0.06-2.57-0.2-5.15,0.15-7.69
		c0.53-3.11,0.88-6.25,0.8-9.4C539.42,419.42,539.77,373.32,539.45,327.23z"/>
	<path fill="#1930B0" d="M690.31,328.49c0.07-1.29-0.12-3.64,1.77-3.6c15.96-0.38,31.94,0.13,47.91-0.24
		c3.17-0.1,6.34,0.08,9.51,0.33c0.8,5.83,0.07,11.7,0.16,17.55c0.09,10.33,0,20.67,0.06,31c0.18,1.48-0.58,3.52-2.35,3.39
		c-7.52,0.32-15.07,0.7-22.56-0.18c-1.84-0.43-3.52,0.48-4.73,1.78c-3.55,3.5-7.53,6.66-10.25,10.89
		c-4.45,6.6-8.13,14.04-8.89,22.08c-1.27,7.82-2.49,15.68-4.63,23.33c-2.24,7.41-1.22,15.3-2.9,22.83
		c-1.16,4.96-0.87,10.1-1.66,15.12c-2.28-2.11-1.66-5.47-1.81-8.25c0.86-15.99,0.32-32,0.4-48.01
		C690.34,387.17,690.32,357.83,690.31,328.49z"/>
	<path fill="#1930B0" d="M764.98,325.56c4.3-0.74,8.65-1.1,13.02-0.99c15.57,0.23,31.16-0.13,46.73,0.29
		c0.24,13.55-0.13,27.09-0.01,40.64c0.09,3.92-0.11,7.85-0.84,11.72c-7.64-0.09-15.28-0.38-22.91-0.11
		c-5.32,0.04-9.3,4.18-12.34,8.08c-2.85,3.95-6.45,7.54-7.95,12.28c-2.04,6.57-6.16,13.02-4.24,20.15
		c-0.16,3.34-1.09,6.62-1.41,9.96l-0.2-0.81c-0.1-0.41-0.29-1.23-0.39-1.64c-4.16,5.5-3.18,12.64-2.77,19.06
		c0,2.01-0.21,4.01-0.32,6.02l-0.64,0.01c-0.07-1.25-0.14-2.5-0.22-3.73c-3.23,11.85-2.78,24.29-5.1,36.31
		c-1.67-8.99-0.61-18.21-0.82-27.3c1.05-10.64,0.12-21.32,0.24-31.98c-0.1-12.02,0.06-24.03,0.21-36.04
		c-0.7-11.99,0.18-23.99,0.09-35.99C765.38,342.84,764.36,334.2,764.98,325.56z"/>
</g>
<g>
	<path fill="#2F418A" d="M143.71,205.19c2.06-2.77,4.3-5.43,7.23-7.32c-0.62,1.2-1.24,2.4-1.93,3.57
		c-13.81,15.12-25.93,31.67-37,48.88c-1.45,2.15-2.73,4.41-3.86,6.74c-24.31,40.58-39.68,86.62-43.79,133.77
		c-1.66-10.25,0.98-20.47,2.58-30.55c3.44-15.45,6.43-31.1,12.16-45.92c4.69-12.39,9.72-24.68,15.5-36.6
		c3.43-5.57,5.48-11.88,9.27-17.24c4.25-6.5,8.02-13.31,12.29-19.81c4.13-8.25,11.02-14.58,15.82-22.39
		C135.06,213.23,140.17,209.91,143.71,205.19z"/>
</g>
<g>
	<path fill="#192989" d="M465.1,229.28c-3.38-1.84-6.92-4.77-7.44-8.82c2.68,2.4,5.25,4.92,7.85,7.42c2.46,0.46,4.98,0.56,7.49,0.55
		c118,0.33,236,0.01,354,0.16c8.76,0.14,17.53,0.09,26.27-0.53c0.27,87.27-0.02,174.54,0.15,261.8c24.99-0.05,49.99-0.05,74.98,0.01
		c6.15-21.9,8.68-44.68,9.24-67.37c-0.33-5.81-0.1-11.62,0.01-17.43l0.08-0.95c0.04,13.46,1.16,26.92,0.66,40.38
		c-1.46,11.28-2.88,22.57-4.97,33.76c-1.35,5.29-2.52,11.11-6.11,15.37c-2.76-0.6-5.43-1.76-8.29-1.67
		c-8.66,0.08-17.32,0.11-25.98,0.09c-13.04,0.21-26.19-0.89-39.06,1.82c-3.88-4.63-2.37-10.88-2.53-16.4
		c0.04-69.31-0.02-138.63,0.01-207.95c-0.2-12.98,0.4-26-0.34-38.95c-2.65-1.55-6.12-0.75-9.09-1.06
		c-120,0.38-240.01-0.03-360.02,0.21C476.38,229.58,470.64,230.53,465.1,229.28z"/>
</g>
<g>
	<path fill="#1E2F7A" d="M871.59,224.93c1.71,0.78,3.59,1.52,4.7,3.15c5.82,7.39,10.48,15.61,15.83,23.33
		c3.59,4.94,6.04,10.56,9.22,15.76c3.46,5.55,5.36,11.87,8.52,17.58c1.47,2.52,1.62,5.44,1.62,8.29c-2.55-5.42-4.89-10.94-7.55-16.3
		C894.39,258.74,884.16,241.02,871.59,224.93z"/>
	<path fill="#1E2F7A" d="M464.29,278.68c0.66,0.06,1.33,0.12,2,0.19c-0.27,1.79-0.48,3.6-0.61,5.41c2.57-0.06,5.15-0.13,7.73-0.2
		c1.94,0.06,3.99-0.31,5.88,0.27c2.09,2.05,1.42,5.35,1.87,8c0.56,0.51,1.67,1.51,2.23,2.01c-0.55,0.59-1.09,1.18-1.63,1.78
		c-0.57,0.01-1.72,0.02-2.29,0.02c0-3.5-0.04-7,0-10.5c-5.07-0.68-10.19-0.38-15.28-0.38C464.22,283.08,464.25,280.88,464.29,278.68
		z"/>
</g>
<g>
	<path fill="#1E2F87" d="M349.48,228.01c10.83-0.13,21.67-0.15,32.5,0.02c10.98,0.38,23.02,5.97,26.9,16.9
		c-0.64-0.03-1.27-0.05-1.9-0.07c-2.13-4.75-6.25-8.17-10.62-10.78c-3.31-1.59-6.98-2.21-10.43-3.43
		c-4.13-1.48-8.58-1.04-12.87-1.19c-6.91-0.28-13.83,0.1-20.7,0.77c-0.22,0.14-0.68,0.43-0.9,0.58c-0.91,4.73-0.02,9.56-0.17,14.33
		c-0.01,1.44-1.03,2.59-1.66,3.8C349.21,241.98,349.52,234.99,349.48,228.01z"/>
</g>
<g>
	<path fill="#162E83" d="M147.69,228.03c5.75,0.08,11.49,0.58,17.25,0.67c37.02-0.02,74.04-0.03,111.05-0.02
		c6.48,0.05,13.01-1.14,19.43,0.2c-5.6,2.25-11.6,0.41-17.4,0.55c-38.34,0.05-76.69-0.04-115.04,0.06c-3.17,0.19-6.88-0.5-9.34,2
		c-1.33-0.59-2.66-1.2-3.98-1.79c-0.32,6.58-0.13,13.16-0.12,19.74c-0.04,76.35,0.02,152.69-0.03,229.03
		c0.27,3.42-1.04,7.72,1.89,10.3c0.1,1.76,0.18,3.53,0.26,5.31c-2.34-1.33-4.84-2.56-7.61-2.41c-11.34-0.1-22.69,0.12-34.04,0.02
		c-9.01,0.07-18.03-0.33-27.02,0.43c-3.62,0.11-7.43,0.57-10.92-0.63c-2.27-2.41-2.17-6.07-1.4-9.07c0.67,2.48,1.35,4.98,2.01,7.48
		c24.97-0.12,49.94-0.1,74.91-0.01C147.8,402.61,147.61,315.32,147.69,228.03z"/>
	<path fill="#162E83" d="M839.49,285.95l0.25-0.8c0.16,0.83,0.46,2.5,0.61,3.34c0.06,79.34-0.14,158.73,0.07,238.05
		c-1.56,4.73-7.59,2.96-11.37,3.12c-106.34-0.11-212.69-0.01-319.03-0.04c-11.34-0.13-22.68,0.27-34-0.35
		c-3.31-0.19-6.62-0.03-9.91,0.35c-0.01,1.42-0.01,2.85,0,4.28c-0.64,0.28-1.91,0.83-2.55,1.11c0.04-2.39,0.06-4.77,0.07-7.14
		c17.79-0.16,35.57-0.04,53.36-0.09c107.23,0.07,214.47-0.12,321.7,0.1c0.17-12.12-0.04-24.25,0.13-36.38
		c-0.19-66.99,0.07-133.98-0.1-200.96C838.67,288.96,838.99,287.42,839.49,285.95z"/>
	<path fill="#162E83" d="M442.05,704.51c0.34,0.28,1.02,0.86,1.37,1.14c2.41,2.18,4.57,4.89,7.82,5.85
		c8.88,2.82,18.58,2.91,27.47,0.09c1.23-0.29,2.48-0.53,3.73-0.71c-1.92,2.66-5.41,3.03-8.38,3.68c-9.18,1.39-19.43,2.01-27.45-3.53
		C444.04,709.76,442.73,707.16,442.05,704.51z"/>
</g>
<g>
	<g>
		<path fill="#1732B1" d="M352.36,230.23c6.87-0.67,13.79-1.05,20.7-0.77c4.29,0.15,8.74-0.29,12.87,1.19
			c3.45,1.22,7.12,1.84,10.43,3.43c4.37,2.61,8.49,6.03,10.62,10.78c0.63,0.02,1.26,0.04,1.9,0.07l0.68,0.03
			c-0.05,0.86-0.14,2.57-0.19,3.43c-0.96,4.42,0,9.58-3.22,13.23c-2.69,3.3-4.41,7.71-8.42,9.67c-4.55,2.43-9.43,4.76-14.71,4.73
			c-8.69,0-17.41-0.1-26.07,0.68c-1.78,0.02-3.82,0.51-5.3-0.77c-1.9-6.21,0.56-12.85-1.09-19.11c-1.38-1.17-3.05-1.93-4.61-2.81
			c0.52-1.52,1.05-3.03,1.58-4.54c-0.76-0.15-2.27-0.44-3.03-0.59c1.71,0,3.41,0,5.13,0.06c0.63-1.21,1.65-2.36,1.66-3.8
			c0.15-4.77-0.74-9.6,0.17-14.33C351.68,230.66,352.14,230.37,352.36,230.23z M369.35,240.74c0.31,2.93-1.16,7.44,2.35,8.87
			c2.54,1.4,6.76-0.08,8.23,2.84c-0.01,4.71-5.54,2.88-8.58,3.52c-2.56,2.81-2.24,6.98-3.09,10.48c2.09,0.61,4.2,1.32,6.4,1.48
			c4.66,0.41,9.03-2.29,12.22-5.43c1.24-3.28,1.89-6.77,2.59-10.2c0.71-2.59-1.08-4.83-2.05-7.07c-1.04-1.83-1.73-4.41-4.1-4.92
			c-3.14-0.54-6.32-0.83-9.47-1.28C372.09,238.55,370.76,239.99,369.35,240.74z"/>
	</g>
</g>
<g>
	<path fill="#162687" d="M453.68,232.28c5.38,0.63,8.23,5.71,12.3,8.17c120-0.08,240,0.01,360-0.04c4.23-0.02,8.47-0.85,12.68-0.03
		l-0.92,1.61c-124.6,0.06-249.21,0.11-373.82-0.03C460.69,238.54,457.11,235.49,453.68,232.28z"/>
</g>
<g>
	<path fill="#20287A" d="M893.74,234.15c0.75,0.78,1.44,1.6,2.09,2.47c5.98,9.79,11.9,19.61,17.33,29.71
		c0.13,0.48,0.39,1.45,0.52,1.94c0.02,0.6,0.04,1.79,0.06,2.38c-3.39-4.14-4.87-9.4-8.05-13.67c-3.58-4.99-5.87-10.75-9.51-15.69
		C894.56,239.25,893.89,236.71,893.74,234.15z"/>
	<path fill="#20287A" d="M538.74,323.05c20.83-0.27,41.68-0.2,62.51-0.05c-0.87,18.4,0.23,36.84-0.5,55.24l-0.05,0.72
		c-9.24-0.01-18.49-0.15-27.73,0.06c-4.69,4.21-9.66,8.38-12.81,13.94l-0.51,0.31c-0.55,0.32-1.65,0.97-2.2,1.29
		c1.39-4.67,5.27-7.82,8.11-11.58c1.75-2.26,3.86-4.53,6.84-5.02c8.52-1.72,17.31,0.01,25.88-1.17c1.42-2.55,1.18-5.63,1.57-8.44
		c1.22-11.26-0.56-22.58,0.38-33.85c0.29-3.27-0.66-6.44-1.63-9.52c-3.54-0.48-7.09-0.84-10.66-0.73
		c-13.31,0.25-26.63,0.04-39.93-0.22c-3.24-0.29-6.03,1.43-8.56,3.2c0.32,46.09-0.03,92.19,0.22,138.28c0.08,3.15-0.27,6.29-0.8,9.4
		C538.5,424.3,538.74,373.67,538.74,323.05z"/>
	<path fill="#20287A" d="M52.53,441.15c2.01,7.96,2.38,16.23,3.43,24.35c1.41,9.07,4.51,17.96,4.29,27.22
		c-1.14-2.97-1.41-6.18-2.46-9.18c-1.81-9.87-3.92-19.7-4.66-29.72C52.68,449.61,52.31,445.38,52.53,441.15z"/>
	<path fill="#20287A" d="M389.61,680.84c3.86-1.2,7.41-3.16,10.94-5.1c0.08,0.26,0.25,0.76,0.33,1.01
		c0.27,3.63-0.16,7.29-0.43,10.92c-1.79-2.69,0.51-5.99-0.89-8.85C396.43,679.89,392.87,683.26,389.61,680.84z"/>
</g>
<g>
	<path fill="#1D3089" d="M275.93,238.85c5.92,0,11.86,0.02,17.75-0.7c0.21,0.65,0.62,1.95,0.83,2.6
		c-44.61,0.26-89.23-0.07-133.84,0.16c0.04,101.71,0.01,203.41,0.01,305.12c20.32,0.08,40.64,0.01,60.95,0.03
		c-0.18-10.05,0.3-20.13-0.21-30.16c-10.79-6.99-21.98-13.38-33.03-19.97c0.05-11.22-0.04-22.43,0.04-33.65
		c0.23-0.11,0.68-0.35,0.91-0.46c11.96,6.42,23.26,14.05,35.13,20.65c-0.03,0.78-0.1,2.32-0.14,3.1
		c-8.98-6.25-18.68-11.38-27.61-17.7c-2.04-1.23-4.4-1.74-6.67-2.38c-1.07,9.02-3.04,18.7,0.57,27.4c1.17,3.39,4.73,4.71,7.57,6.37
		c5.57,2.98,10.43,7.15,16.17,9.85c3.16,1.46,6.16,3.27,8.74,5.63c-0.12,10.88,0.55,21.77,0.14,32.64
		c-6.05,0.91-12.16,0.04-18.23,0.64c-14.35,0.02-28.7-0.01-43.05,0.05c-2.07,0.3-3.68-1.56-3.82-3.5
		c-1.49-5.75,1.65-11.28,1.28-17.04c-0.31-10.15,0.52-20.36-0.87-30.46c-0.59-4.89,0.79-9.7,0.82-14.57
		c-0.09-77.01,0.04-154.02-0.05-231.03c0.15-2.83-0.46-5.63-1.92-8.07c0.42-1.45,0.85-2.89,1.27-4.34
		c3.77-0.22,7.54-0.27,11.31-0.22C205.3,238.88,240.62,238.84,275.93,238.85z"/>
</g>
<g>
	<g>
		<path fill="#25387E" d="M369.35,240.74c1.41-0.75,2.74-2.19,4.5-1.71c3.15,0.45,6.33,0.74,9.47,1.28c2.37,0.51,3.06,3.09,4.1,4.92
			c0.97,2.24,2.76,4.48,2.05,7.07c-0.7,3.43-1.35,6.92-2.59,10.2c-3.19,3.14-7.56,5.84-12.22,5.43c-2.2-0.16-4.31-0.87-6.4-1.48
			c0.85-3.5,0.53-7.67,3.09-10.48c3.04-0.64,8.57,1.19,8.58-3.52c-1.47-2.92-5.69-1.44-8.23-2.84
			C368.19,248.18,369.66,243.67,369.35,240.74z M371.33,240.81c-0.01,2.69,0.01,5.38,0.07,8.08c3.12-0.04,6.25-0.04,9.37,0.02
			c0.05,3.01,0.03,6.02-0.19,9.02c-3.07,0-6.15,0.01-9.22,0c-0.01,2.66-0.01,5.33,0.02,8c5.24,0.27,12-0.46,14.32-6
			c3.26-5.51,1.91-13.06-2.91-17.19C379.55,240.09,375.19,240.89,371.33,240.81z"/>
	</g>
</g>
<g>
	<path fill="#F5FBF6" d="M371.33,240.81c3.86,0.08,8.22-0.72,11.46,1.93c4.82,4.13,6.17,11.68,2.91,17.19
		c-2.32,5.54-9.08,6.27-14.32,6c-0.03-2.67-0.03-5.34-0.02-8c3.07,0.01,6.15,0,9.22,0c0.22-3,0.24-6.01,0.19-9.02
		c-3.12-0.06-6.25-0.06-9.37-0.02C371.34,246.19,371.32,243.5,371.33,240.81z"/>
</g>
<g>
	<path fill="#2A3687" d="M295.06,242l1.19-0.35c0.27,7.97-0.35,15.93-0.44,23.9c0,88.33,0.02,176.67,0.01,265
		c0.02,4,0.41,7.99,0.59,11.99c0.02,1.54,0.2,3.26-0.8,4.57c-1.37,0.78-3.01,0.64-4.52,0.69c-19.04-0.26-38.11,0.15-57.14-0.07
		c-0.32-0.31-0.96-0.93-1.28-1.24c-0.67-6.63,0.51-13.28,0.36-19.93c0.35-4.55-0.69-9.5,1.25-13.75c2.42-1.69,5.45-2.33,7.78-4.21
		c4.03-3.11,8.99-4.76,12.73-8.27c3.32-2.73,9.47-3.61,9.67-8.79c1.22-8.63,0.82-17.4,0.48-26.07c-4.94,0.32-8.59,3.9-12.61,6.33
		c-2.84,1.84-4.92,4.79-8.28,5.77c-4.1,1.62-7.69,4.27-11.27,6.79c-1.03,4.95,0.02,10.15-0.38,15.2c-0.41,4.8,0.8,9.85-1.01,14.44
		l-0.06-0.97c-0.31-10.21-0.07-20.43-0.1-30.64c8.49-5.01,16.89-10.19,25.34-15.28c3.17-2.02,6.28-4.21,9.9-5.36
		c0.28,11.52,0.29,23.06-0.03,34.58c-4.23,2.23-8.38,4.65-12.46,7.14c-1.25,0.71-1.81,2.09-2.52,3.26
		c-0.89,0.34-1.89-0.16-2.82-0.13c-4.68,3.18-9.48,6.18-14.41,8.98c-0.17,10.17-0.08,20.34-0.05,30.51
		c20.06-0.11,40.13,0.03,60.19-0.07l0.58-0.04c0.88-5.77,0.51-11.63,0.52-17.44c0.04-90.68-0.01-181.36,0.03-272.04
		C295.46,251.66,295.86,246.79,295.06,242z"/>
</g>
<g>
	<path fill="#AFBADD" d="M108.15,257.06c1.13-2.33,2.41-4.59,3.86-6.74C111.15,252.79,109.81,255.05,108.15,257.06z"/>
</g>
<g>
	<path fill="#29368D" d="M226.81,259.18c2.8-1.09,2.53,2.68,3.17,4.35c1.77,9.97,7.03,18.8,12.86,26.9
		c-0.61-0.15-1.84-0.44-2.46-0.58c-2.91-2.74-5.68-5.85-6.91-9.73c-1.64-4.96-3.92-9.66-5.81-14.51c-1.59,4.51-3.86,8.74-5.4,13.27
		c-1.44,4.45-5.38,7.39-7.37,11.55c-2.65,5.54-7.14,10.14-8.74,16.18c-1.76,6.23-2.37,13.01-0.7,19.33
		c2.01,4.93,6.31,8.44,10.19,11.91c3.37,3.02,8.18,2.42,12.35,2.59c6.4,0.39,12.52-2.73,17.16-6.91c5.97-6.68,6.66-16.63,5.01-25.06
		c-2.12-4.95-4.83-9.72-5.48-15.18c5.49,6.75,8.02,15.61,7.82,24.23c0.39,7.43-2.27,15.52-8.53,19.98c-3.31,3-7.77,3.97-12.01,4.82
		c-5.65,1.36-11.44-0.49-16.8-2.18c-3.95-2.44-7.97-5.43-9.79-9.87c-3.04-5.78-3.05-12.49-2.63-18.85c0.89-2.56,1.39-5.23,2.1-7.84
		c4.36-10.59,13.33-18.53,17.34-29.29C224.18,269.4,225,264.12,226.81,259.18z"/>
</g>
<g>
	<path fill="#1931B0" d="M227.66,265.61c1.89,4.85,4.17,9.55,5.81,14.51c1.23,3.88,4,6.99,6.91,9.73c0.62,0.14,1.85,0.43,2.46,0.58
		l0.21,0.04c0.36,0.47,1.07,1.4,1.43,1.87c0.05,0.24,0.15,0.72,0.2,0.95c0.65,5.46,3.36,10.23,5.48,15.18
		c1.65,8.43,0.96,18.38-5.01,25.06c-4.64,4.18-10.76,7.3-17.16,6.91c-4.17-0.17-8.98,0.43-12.35-2.59
		c-3.88-3.47-8.18-6.98-10.19-11.91c-1.67-6.32-1.06-13.1,0.7-19.33c1.6-6.04,6.09-10.64,8.74-16.18c1.99-4.16,5.93-7.1,7.37-11.55
		C223.8,274.35,226.07,270.12,227.66,265.61z"/>
	<path fill="#1931B0" d="M465.08,328.49c0.03-2.61,2.4-4.42,4.94-3.94c18.06,0.37,36.15-0.41,54.2,0.42
		c-0.2,1.82-0.33,3.66-0.18,5.5c0.71,8.66,0.17,17.34,0.32,26.01c-0.19,6.72,0.51,13.49-0.53,20.15c-2.13,0.68-2.84-2.07-4.49-2.7
		c-1.1,1.13-1.22,3.73-3.25,3.39c-7.22,0.28-14.48,0.97-21.65-0.3c-2.73,4.81-7.14,8.33-10.03,13.02c-3.9,6.29-8.3,12.77-8.57,20.44
		c-1.95,11.51-4.47,22.93-6.25,34.47c-0.84,9.67-3.24,19.22-2.45,28.99c-0.18,5.02-0.46,10.04-1.15,15.02
		c-1.31-13.42-0.85-26.95-0.68-40.42C465.1,408.53,465.45,368.49,465.08,328.49z"/>
</g>
<g>
	<path fill="#2E3B89" d="M479.59,267.38c5.54,1.95,8.3,7.84,13.34,10.55c3.46,0.33,6.94,0.09,10.42,0.18
		c-1.66,3.75-6.24,2.47-9.43,2.18c-5.45-0.49-7.71-6.3-11.82-9.12c-0.5,2.19-0.95,4.39-1.53,6.57
		C480.58,274.26,480.05,270.82,479.59,267.38z"/>
</g>
<g>
	<path fill="#2E4188" d="M503.3,267.42c5.6,1.77,8.9,7.19,13.42,10.65c3.56-0.02,7.11-0.01,10.67-0.04
		c-0.03-3.47-0.18-6.97,0.37-10.41c1.61,3.71-0.32,7.77-0.22,11.66c-3.35,1.2-6.96,0.68-10.43,0.59c-1.16,0-2.04-0.87-2.92-1.49
		c-3.01-2.38-5.7-5.13-8.51-7.72c-0.49,2.26-0.93,4.53-1.29,6.82c-0.33-2.99-0.81-5.96-1.06-8.95L503.3,267.42z"/>
</g>
<g>
	<path fill="#143895" d="M479.48,278.1c-0.03-3.58-0.08-7.15,0.11-10.72c0.46,3.44,0.99,6.88,0.98,10.36
		c-0.99,4-5.64,1.29-8.08,3.27c0.23,1.04,0.58,2.05,0.92,3.07c-2.58,0.07-5.16,0.14-7.73,0.2c0.13-1.81,0.34-3.62,0.61-5.41
		c-0.67-0.07-1.34-0.13-2-0.19c-0.04,2.2-0.07,4.4-0.1,6.6c5.09,0,10.21-0.3,15.28,0.38c-5.28,0.3-10.56,0.19-15.84,0.15
		c-0.01-2.56-0.01-5.11,0.04-7.66C468.93,278.03,474.21,278.08,479.48,278.1z"/>
</g>
<g>
	<path fill="#1732B9" d="M503.33,268.53c0.25,2.99,0.73,5.96,1.06,8.95c0.36-2.29,0.8-4.56,1.29-6.82c2.81,2.59,5.5,5.34,8.51,7.72
		c0.32,2.09,1.06,4.35,0.07,6.38c-0.39,0.29-1.16,0.88-1.55,1.18c-1.61-2-3.05-4.3-5.39-5.5c-2.33,3.2,0.56,6.17,2.43,8.68
		c-1.34,1.18-2.69,2.36-4.03,3.54c-0.82-3.33-0.61-8.31-4.78-9.33c-3.97-0.86-8.88-0.95-11.91,2.17c-2.48,2.13-4.69,4.73-4.98,8.13
		c-0.17,0.18-0.5,0.55-0.66,0.73c-0.56-0.5-1.67-1.5-2.23-2.01c-0.45-2.65,0.22-5.95-1.87-8c-1.89-0.58-3.94-0.21-5.88-0.27
		c-0.34-1.02-0.69-2.03-0.92-3.07c2.44-1.98,7.09,0.73,8.08-3.27c0.58-2.18,1.03-4.38,1.53-6.57c4.11,2.82,6.37,8.63,11.82,9.12
		c3.19,0.29,7.77,1.57,9.43-2.18C503.36,274.92,503.33,271.73,503.33,268.53z"/>
</g>
<g>
	<path fill="#1D2C97" d="M507.32,280.44c2.34,1.2,3.78,3.5,5.39,5.5c0.39-0.3,1.16-0.89,1.55-1.18c2.52-2.06,5.93-0.46,8.86-1.19
		c2.11-0.7,3.82,0.78,5.35,2l-1.09,0.08c-3.6,0.25-7.22,0.23-10.82,0.29c-3.53,3.56-7.42,6.74-11.08,10.16
		c-0.54,0.04-1.62,0.1-2.16,0.14c-0.01-3.45,0.01-6.9,0.05-10.35c-3.6-0.07-7.19-0.06-10.78,0.05c-2.77,2.66-5.59,5.24-8.54,7.69
		c0.29-3.4,2.5-6,4.98-8.13c3.03-3.12,7.94-3.03,11.91-2.17c4.17,1.02,3.96,6,4.78,9.33c1.34-1.18,2.69-2.36,4.03-3.54
		C507.88,286.61,504.99,283.64,507.32,280.44z"/>
</g>
<g>
	<path fill="#2F3E90" d="M913.37,294c5.74,10.94,9.28,22.88,13.48,34.47c4.1,10.16,3.74,21.49,7.95,31.64
		c-0.36,4.9,1.77,9.5,1.88,14.36c0.58,9.87,2.35,19.77,1.05,29.65l-0.08,0.95c-1.56-37.21-10.11-74.02-24.55-108.33
		C913.16,296.06,913.3,294.69,913.37,294z"/>
</g>
<g>
	<path fill="#233489" d="M934.11,321.33c-1.69-6.9-5.35-13.31-5.61-20.51c4.53,9.47,7.07,19.71,10.43,29.62
		c2.81,10.76,5.72,21.58,6.72,32.69c-3.84-6.46-3.34-14.35-5.63-21.37C939.7,334.52,936.92,327.87,934.11,321.33z"/>
	<path fill="#233489" d="M60.25,493.19c1.49,1.77,3.39,3.39,4.13,5.66c0.5,3.06-0.04,6.17-0.2,9.24
		C62.23,503.33,61.32,498.21,60.25,493.19z"/>
</g>
<g>
	<path fill="#1E3182" d="M349.43,304.57l0.28,0.24c0.41,0.35,1.22,1.05,1.63,1.4c-0.45,15.47-0.94,30.98-0.08,46.46
		c5.88,0.83,11.84,0.19,17.75,0.06c1.68,0.16,2.23-1.9,2.27-3.2c0.47-4.54-0.45-9.14,0.36-13.65c0.67-2.28,3.43-1.96,5.28-2.15
		c3.44-0.04,7-0.44,10.36,0.49c3.66,3.94,1.64,9.51,1.71,14.24c0.02,1.74,0.73,4.39,2.91,4.34c5.25,0.18,10.55,0.45,15.79,0.03
		c1.77-1.43,0.78-4.33,1.13-6.34c-0.57-13.36-0.05-26.76-1.04-40.1c-6.14-0.34-12.29-0.28-18.42,0.21c-0.31,4.94,0.17,9.88,0,14.82
		c0.02,1.23-1.52,1.64-2.16,2.48c0.25-6.55,0-13.11,0.21-19.66c7.66,0.94,15.37-0.42,23.02,0.6c-0.12,15.23-0.05,30.45-0.03,45.68
		c0.06,1.52-0.27,3.02-0.66,4.5c-7.44-0.21-14.87-0.04-22.31-0.09c-0.55-6.3,0.61-12.73-0.69-18.94c-4.46,0.17-8.93,0.16-13.38,0.02
		c-1.24,6.23-0.19,12.61-0.8,18.9c-7.66,0.01-15.32,0.05-22.97-0.01C349.23,338.13,349.52,321.35,349.43,304.57z"/>
</g>
<g>
	<path fill="#1832B1" d="M386.3,322.79c0.08-6.17,0.03-12.34,0.21-18.51c0.36,6.54-0.53,13.14,0.69,19.62
		c0.64-0.84,2.18-1.25,2.16-2.48c0.17-4.94-0.31-9.88,0-14.82c6.13-0.49,12.28-0.55,18.42-0.21c0.99,13.34,0.47,26.74,1.04,40.1
		c-0.35,2.01,0.64,4.91-1.13,6.34c-5.24,0.42-10.54,0.15-15.79-0.03c-2.18,0.05-2.89-2.6-2.91-4.34c-0.07-4.73,1.95-10.3-1.71-14.24
		c-3.36-0.93-6.92-0.53-10.36-0.49c-1.85,0.19-4.61-0.13-5.28,2.15c-0.81,4.51,0.11,9.11-0.36,13.65c-0.04,1.3-0.59,3.36-2.27,3.2
		c-5.91,0.13-11.87,0.77-17.75-0.06c-0.86-15.48-0.37-30.99,0.08-46.46c6.46,0.14,13.15-1.16,19.46,0.39
		c1.49,5.26,0.27,10.89,0.5,16.31c0.34-0.01,1.03-0.02,1.37-0.03C377.21,322.8,381.76,322.94,386.3,322.79z"/>
</g>
<g>
	<path fill="#1A2B98" d="M613.69,323.07c20.89-0.34,41.81-0.27,62.7-0.03c-0.39,0.51-1.15,1.54-1.54,2.06
		c-4.29-0.3-8.58-0.44-12.87-0.34c-15.34,0.26-30.68-0.29-46.01,0.23c-0.75,27.16-0.13,54.34-0.37,81.51
		c0.3,12.35-0.47,24.73,0.35,37.06c1.31,8.12-1.82,16.36,0.53,24.38c2.15-8.26,1.68-16.93,3.75-25.22
		c1.09-8.67,3.08-17.18,4.19-25.85c2.15-7.84,3.51-16.08,7.65-23.21c2.41-5.03,6.66-8.74,10.26-12.88c1.84-2.14,4.48-3.42,7.25-3.85
		c6.17-1,12.44-0.51,18.63,0.05c1.58,0.01,3.36,0.33,4.8-0.53c1.62-2.31,2.2-5.16,3.2-7.76c0.23,3.39,0.21,6.79,0.13,10.19
		c-9.3,0.21-18.62-0.19-27.9,0.22c-10.82,7.46-18.07,19.57-20.5,32.4c-2.5,12.98-5.48,25.89-6.9,39.06
		c-2.69,13.77-2.82,27.85-4.54,41.74c-0.95-0.1-1.89-0.2-2.83-0.28C613.71,435.7,613.67,379.39,613.69,323.07z"/>
</g>
<g>
	<g>
		<path fill="#1C2C91" d="M688.63,323.03c20.94-0.28,41.89-0.19,62.83-0.04c0.14,18.63,0.16,37.26-0.01,55.89
			c-8.84,0.14-17.69,0-26.53,0.05c-1.51-0.24-2.49,1.05-3.56,1.84c-5.19,4.19-9.57,9.39-12.77,15.23
			c-5.54,9.25-6.19,20.26-8.53,30.55c-3.8,19.55-6.53,39.33-7.72,59.2c-0.27,2.19-0.73,4.35-1.06,6.54
			c-0.89-0.07-1.78-0.13-2.65-0.19C688.69,435.74,688.69,379.39,688.63,323.03z M690.31,328.49c0.01,29.34,0.03,58.68,0.03,88.02
			c-0.08,16.01,0.46,32.02-0.4,48.01c0.15,2.78-0.47,6.14,1.81,8.25c0.79-5.02,0.5-10.16,1.66-15.12c1.68-7.53,0.66-15.42,2.9-22.83
			c2.14-7.65,3.36-15.51,4.63-23.33c0.76-8.04,4.44-15.48,8.89-22.08c2.72-4.23,6.7-7.39,10.25-10.89c1.21-1.3,2.89-2.21,4.73-1.78
			c7.49,0.88,15.04,0.5,22.56,0.18c1.77,0.13,2.53-1.91,2.35-3.39c-0.06-10.33,0.03-20.67-0.06-31c-0.09-5.85,0.64-11.72-0.16-17.55
			c-3.17-0.25-6.34-0.43-9.51-0.33c-15.97,0.37-31.95-0.14-47.91,0.24C690.19,324.85,690.38,327.2,690.31,328.49z"/>
	</g>
</g>
<g>
	<path fill="#1C278A" d="M763.78,323.01c20.92-0.2,41.85-0.19,62.78,0c-0.03,18.64,0.21,37.28-0.11,55.91
		c-9.47,0.11-18.93-0.18-28.38,0.14c-2.27,2.61-5.4,4.27-7.58,6.96c-4.03,5.06-8.05,10.33-10.14,16.54
		c-1.95,4.85-2.05,10.19-3.91,15.06c-1.92-7.13,2.2-13.58,4.24-20.15c1.5-4.74,5.1-8.33,7.95-12.28c3.04-3.9,7.02-8.04,12.34-8.08
		c7.63-0.27,15.27,0.02,22.91,0.11c0.73-3.87,0.93-7.8,0.84-11.72c-0.12-13.55,0.25-27.09,0.01-40.64
		c-15.57-0.42-31.16-0.06-46.73-0.29c-4.37-0.11-8.72,0.25-13.02,0.99c-0.62,8.64,0.4,17.28,0.13,25.93c0.09,12-0.79,24-0.09,35.99
		c-0.15,12.01-0.31,24.02-0.21,36.04c-0.12,10.66,0.81,21.34-0.24,31.98c0.21,9.09-0.85,18.31,0.82,27.3
		c2.32-12.02,1.87-24.46,5.1-36.31c0.08,1.23,0.15,2.48,0.22,3.73c-0.25,7.8-1.92,15.51-2.2,23.34c-0.95,6.37-0.7,12.89-2.29,19.17
		c-0.43,0.06-1.28,0.19-1.7,0.25c-0.4-1.46-0.81-2.94-0.77-4.45C763.79,433.36,763.73,378.18,763.78,323.01z"/>
</g>
<g>
	<path fill="#9EAFDA" d="M463.29,343.45c0.07-6.82-0.29-13.66,0.35-20.47c0.47,56.56-0.08,113.14,0.35,169.7l-0.33,0.46
		c-0.53-4.2-0.57-8.43-0.46-12.65C463.31,434.81,463.25,389.13,463.29,343.45z"/>
</g>
<g>
	<path fill="#C4CAF7" d="M601.25,323c0.33,1.46,0.65,2.93,0.67,4.44c-0.2,12.36,0.35,24.72-0.08,37.08c-0.19,4.62,0,9.24,0.11,13.86
		l-1.2-0.14C601.48,359.84,600.38,341.4,601.25,323z"/>
</g>
<g>
	<g>
		<path fill="#203278" d="M239.75,353.29c9.05-4.96,17.34-11.31,26.7-15.68c0.23,11.4,0.42,22.84-0.11,34.23
			c-10.29,5.93-20.48,12.05-30.48,18.46c-1.4,0.78-2.89,1.41-4.36,2.06c-0.55-11.25-0.14-22.53-0.26-33.79
			C234.04,356.75,236.87,354.98,239.75,353.29z M234.01,358.82c-2.97,6.73-0.65,14.25-1.69,21.31c-0.18,2.67-1.8,6.13,1.03,7.95
			c2.19,0.71,4.45-0.83,6.23-1.99c6.27-4.58,12.99-8.46,19.85-12.08c4.35-2.09,7.02-6.75,6.97-11.53
			c0.01-7.08,0.22-14.17,0.08-21.25c-0.37-0.12-1.1-0.37-1.46-0.5C254.25,345.96,244.82,353.63,234.01,358.82z"/>
	</g>
</g>
<g>
	<g>
		<path fill="#1B2CA1" d="M188.44,371.52c-0.05-11.3-0.15-22.6,0.05-33.9c3.48,0.63,6.19,2.95,9.08,4.79
			c8.83,5.58,18,10.62,26.81,16.21c0.17,11.22,0.25,22.46-0.03,33.68c-5.42-1.42-9.55-5.35-14.36-7.99
			C202.7,380.24,195.78,375.52,188.44,371.52z M189.96,342.64c-2.52,1.91,0.47,5.1,1.5,7.17c-0.38,5.91-0.26,11.86-0.9,17.77
			c-0.13,2.19,1.96,3.56,3.17,5.12c1.21-0.92,2.37-1.91,3.69-2.66c1.29-0.22,2,1.21,2.94,1.83c-1.03-0.03-2.06-0.05-3.09-0.08
			c-0.25,0.26-0.73,0.77-0.97,1.02c2.85,1.46,5.34,3.48,7.84,5.47c3.28,2.69,7.74,3.37,10.88,6.27c2.18,1.89,4.53,3.59,7.07,4.98
			c1.53-8.26,0.36-16.74,0.66-25.09c0.52-3.3-2.22-5.47-4.84-6.78c-6.97-3.53-12.65-9.14-19.86-12.26
			C195.32,344.38,193.13,340.42,189.96,342.64z"/>
	</g>
</g>
<g>
	<path fill="#1932B2" d="M234.01,358.82c10.81-5.19,20.24-12.86,31.01-18.09c0.36,0.13,1.09,0.38,1.46,0.5
		c0.14,7.08-0.07,14.17-0.08,21.25c0.05,4.78-2.62,9.44-6.97,11.53c-6.86,3.62-13.58,7.5-19.85,12.08c-1.78,1.16-4.04,2.7-6.23,1.99
		c-2.83-1.82-1.21-5.28-1.03-7.95C233.36,373.07,231.04,365.55,234.01,358.82z"/>
</g>
<g>
	<path fill="#1932B1" d="M189.96,342.64c3.17-2.22,5.36,1.74,8.09,2.76c7.21,3.12,12.89,8.73,19.86,12.26
		c2.62,1.31,5.36,3.48,4.84,6.78c-0.3,8.35,0.87,16.83-0.66,25.09c-2.54-1.39-4.89-3.09-7.07-4.98c-3.14-2.9-7.6-3.58-10.88-6.27
		c-2.5-1.99-4.99-4.01-7.84-5.47c0.24-0.25,0.72-0.76,0.97-1.02c1.03,0.03,2.06,0.05,3.09,0.08c-0.94-0.62-1.65-2.05-2.94-1.83
		c-1.32,0.75-2.48,1.74-3.69,2.66c-1.21-1.56-3.3-2.93-3.17-5.12c0.64-5.91,0.52-11.86,0.9-17.77
		C190.43,347.74,187.44,344.55,189.96,342.64z"/>
</g>
<g>
	<g>
		<path fill="#F7FBF9" d="M237.32,351.95c0.61,0.33,1.82,1,2.43,1.34c-2.88,1.69-5.71,3.46-8.51,5.28
			c0.12,11.26-0.29,22.54,0.26,33.79c1.47-0.65,2.96-1.28,4.36-2.06c10-6.41,20.19-12.53,30.48-18.46c-0.16,0.83-0.46,2.5-0.62,3.34
			c-1.18,0.65-2.35,1.31-3.53,1.97c1.7,0.72,3.44,1.38,5.01,2.36c0.68,10.83-0.05,21.73,0.29,32.58c0.44,3.01,1.5,5.91,1.81,8.95
			c-0.68-0.04-2.04-0.12-2.72-0.17c-1.92,0.06-3.63,1-5.23,1.98c-9.94,6.21-20.01,12.2-30.03,18.27
			c0.01,11.45-0.37,22.92,0.19,34.37c11.9-6.55,23.1-14.32,34.94-21c-0.18,1.4-0.4,2.79-0.62,4.19c0.23,1.01,0.47,2.04,0.64,3.07
			c-3.62,1.15-6.73,3.34-9.9,5.36c-8.45,5.09-16.85,10.27-25.34,15.28c0.03,10.21-0.21,20.43,0.1,30.64
			c-2.19-0.01-4.38-0.01-6.57-0.03c-0.27-10.18,0.28-20.36-0.29-30.53c-11.87-6.6-23.17-14.23-35.13-20.65
			c0.51-1.26,0.95-2.54,1.4-3.81c-0.75,0.1-1.49,0.21-2.23,0.32c0.02-1.29,0.03-2.58,0.04-3.86c5.83,2.8,10.86,6.97,16.64,9.88
			c6.52,3.41,12.14,8.55,19.15,10.99c0.38-11.32,0.05-22.65,0.19-33.97c-10.18-6.33-20.58-12.29-30.72-18.66
			c-1.68-1-3.52-1.69-5.37-2.31c-0.69-1.23-1.37-2.45-2.04-3.68c0.63-3.31,0.97-6.68,1.85-9.93c0.05,1.97,0.14,3.96,0.21,5.95
			c8.8,5.73,18.12,10.63,26.87,16.44c2.76,1.89,5.83,3.26,9.03,4.23c0.14-11.14,0.39-22.32-0.08-33.43
			c-6.37-4.3-13.2-7.92-19.71-12.03c-5.36-2.82-9.98-7.23-16.02-8.6l0.07-0.17c0.46-0.35,1.37-1.05,1.83-1.39
			c-1.37-1.67-2.73-3.34-4.09-5.01c0.52-0.31,1.56-0.94,2.08-1.26c7.34,4,14.26,8.72,21.55,12.79c4.81,2.64,8.94,6.57,14.36,7.99
			c0.28-11.22,0.2-22.46,0.03-33.68c0.78,0.76,1.54,1.56,2.31,2.36c0.43-0.9,0.86-1.79,1.29-2.67c0.06,2.47,0.11,4.95,0.16,7.43
			c-0.5,0.14-1.49,0.42-1.98,0.56c-0.27,7.8-0.06,15.6-0.11,23.4c1.43-0.04,3.97,1.14,3.63-1.3c0.72-10.16,0.06-20.38,0.1-30.55
			c0.16-1.99,1.13-3.8,1.82-5.63c0.95,0.57,1.91,1.14,2.87,1.71C235.42,353.27,236.37,352.61,237.32,351.95z M262.51,380.86
			c-10.36,6.21-20.51,12.78-31.09,18.6c-0.3,11.33-0.27,22.67-0.02,34.01c9.73-3.69,17.57-10.91,26.82-15.56
			c3.02-1.38,5.71-3.34,8.38-5.29c-0.07-11.1,0.13-22.22-0.14-33.32C265.11,379.75,263.73,380.13,262.51,380.86z"/>
	</g>
</g>
<g>
	<path fill="#20318A" d="M945.58,363.46l0.22-1.06c2.89,15.17,4.58,30.64,4.21,46.1c-0.2,11.32,0.46,22.67-0.49,33.97
		c-1.06,11.14-2.27,22.29-4.75,33.22c-1.56,10.36-4.29,20.49-7.14,30.56c-4.68,13.3-8.48,27.05-15.26,39.47
		c0.16-3.11,0.74-6.19,1.98-9.06c5.65-14.45,11.49-28.9,15.07-44.04c1.07-4.8,3.31-9.94,1.37-14.79c-1.38,0.48-1.7,2.21-2.53,3.26
		c0.12-7.92,2.03-15.66,2.27-23.57c0.21,6.32,0.25,12.95,0.66,19.04c2.58-1.87,2.93-5.44,3.44-8.35c0.61-8.66,2.97-17.11,3.1-25.81
		c1.77-22.6,1.87-45.45-1.76-67.87C945.45,370.88,944.6,367.12,945.58,363.46z"/>
</g>
<g>
	<g>
		<path fill="#323077" d="M188.55,379.35c6.04,1.37,10.66,5.78,16.02,8.6c6.51,4.11,13.34,7.73,19.71,12.03
			c0.47,11.11,0.22,22.29,0.08,33.43c-3.2-0.97-6.27-2.34-9.03-4.23c-8.75-5.81-18.07-10.71-26.87-16.44
			c-0.07-1.99-0.16-3.98-0.21-5.95C188.68,397.65,188.05,388.49,188.55,379.35z M188.43,383.04c0.12,9.28,0.11,18.58-0.04,27.87
			c2.4,1.43,5.05,2.35,7.45,3.75c4.08,3.34,8.62,6.08,13.19,8.66c5.01,1.29,8.59,5.15,13.04,7.52c1-1.6,1.63-3.4,1.49-5.31
			c-0.06-7.01-0.12-14.03-0.04-21.04c0.39-3-2.32-4.78-4.56-6.07c-3.8-2.14-7.25-4.9-11.3-6.58c-5.56-2.07-9.74-6.48-14.81-9.42
			C191.38,381.56,189.84,382.63,188.43,383.04z"/>
	</g>
</g>
<g>
	<g>
		<path fill="#1C3178" d="M262.51,380.86c1.22-0.73,2.6-1.11,3.95-1.56c0.27,11.1,0.07,22.22,0.14,33.32
			c-2.67,1.95-5.36,3.91-8.38,5.29c-9.25,4.65-17.09,11.87-26.82,15.56c-0.25-11.34-0.28-22.68,0.02-34.01
			C242,393.64,252.15,387.07,262.51,380.86z M259.7,385.83c-1.42,0.11-2.95,0.08-4.13,1c-3.45,2.3-7.09,4.32-10.45,6.76
			c-3.24,2.56-8.03,3.01-9.83,7.2c-0.59,0.18-1.77,0.56-2.36,0.75c-0.66,1.58-1.49,3.2-0.98,4.98c1.25,7.83,0.35,15.78,0.7,23.67
			c2.39-1.07,4.81-2.14,7.42-2.55c2.43-2.77,5.94-4.05,8.8-6.24c3.2-2.64,7.25-3.9,10.57-6.36c2.07-1.64,5.79-2.25,5.78-5.5
			c0.31-9.34,0.37-18.72-0.96-28.01C262.36,382.53,260.95,384.12,259.7,385.83z"/>
	</g>
</g>
<g>
	<path fill="#293880" d="M349.43,379.87c9.46-1.23,19.05-0.26,28.56-0.58c10.81,0.64,21.7-0.74,32.46,0.55
		c-0.16,4.06,0.13,8.13-0.12,12.19c-0.23,0.21-0.68,0.63-0.9,0.84c-5.29,0.21-10.58,0.08-15.86,0c0.2-0.5,0.61-1.49,0.81-1.99
		c3.87,0.28,7.86,1.17,11.66-0.06c3.29-0.54,2.59-4.92,2.15-7.32c-0.19-2.63-3.24-2.6-5.19-2.67c-12.34,0.12-24.68-1.47-37.01-0.26
		c-4.24,0.51-8.55,0.4-12.74,1.25c-1.71,2.61-2.71,6.53-0.73,9.24c4.71,0.54,9.46-1.13,14.14-0.05c2.52,2.55,1.35,6.32,1.1,9.45
		c-0.7,4.7,0.15,9.41,0.62,14.1c0.42,3.97-0.22,7.99,0.38,11.94c0.16,1.54,2.17,1.38,3.3,1.72c5.32,0.49,10.69,0.27,16.01,0.84
		c-7.15,0.36-14.34-0.22-21.46,0.78c-0.19-12.29-0.04-24.58-0.07-36.86c-5.65-0.03-11.3,0.03-16.95-0.09
		C349.37,388.55,349.39,384.21,349.43,379.87z"/>
</g>
<g>
	<path fill="#1733B0" d="M353.25,381.82c4.19-0.85,8.5-0.74,12.74-1.25c12.33-1.21,24.67,0.38,37.01,0.26
		c1.95,0.07,5,0.04,5.19,2.67c0.44,2.4,1.14,6.78-2.15,7.32c-3.8,1.23-7.79,0.34-11.66,0.06c-0.2,0.5-0.61,1.49-0.81,1.99
		c-0.7,11.52,0.01,23.14-0.33,34.7c-0.13,0.61-0.38,1.84-0.51,2.46c-8.71-0.13-17.42,0.13-26.12-0.19c7.12-1,14.31-0.42,21.46-0.78
		c-5.32-0.57-10.69-0.35-16.01-0.84c-1.13-0.34-3.14-0.18-3.3-1.72c-0.6-3.95,0.04-7.97-0.38-11.94c-0.47-4.69-1.32-9.4-0.62-14.1
		c0.25-3.13,1.42-6.9-1.1-9.45c-4.68-1.08-9.43,0.59-14.14,0.05C350.54,388.35,351.54,384.43,353.25,381.82z"/>
</g>
<g>
	<path fill="#1732B0" d="M188.43,383.04c1.41-0.41,2.95-1.48,4.42-0.62c5.07,2.94,9.25,7.35,14.81,9.42
		c4.05,1.68,7.5,4.44,11.3,6.58c2.24,1.29,4.95,3.07,4.56,6.07c-0.08,7.01-0.02,14.03,0.04,21.04c0.14,1.91-0.49,3.71-1.49,5.31
		c-4.45-2.37-8.03-6.23-13.04-7.52c-4.57-2.58-9.11-5.32-13.19-8.66c-2.4-1.4-5.05-2.32-7.45-3.75
		C188.54,401.62,188.55,392.32,188.43,383.04z"/>
</g>
<g>
	<path fill="#1932B0" d="M259.7,385.83c1.25-1.71,2.66-3.3,4.56-4.3c1.33,9.29,1.27,18.67,0.96,28.01c0.01,3.25-3.71,3.86-5.78,5.5
		c-3.32,2.46-7.37,3.72-10.57,6.36c-2.86,2.19-6.37,3.47-8.8,6.24c-2.61,0.41-5.03,1.48-7.42,2.55c-0.35-7.89,0.55-15.84-0.7-23.67
		c-0.51-1.78,0.32-3.4,0.98-4.98c0.59-0.19,1.77-0.57,2.36-0.75c1.8-4.19,6.59-4.64,9.83-7.2c3.36-2.44,7-4.46,10.45-6.76
		C256.75,385.91,258.28,385.94,259.7,385.83z"/>
	<path fill="#1932B0" d="M189.51,444.49c-1.29-7.07-2.13-14.79,1.19-21.46c3.83,2.04,7.73,3.99,11.19,6.64
		c6.37,3.93,12.9,7.61,19.17,11.71c2.73,1.69,2.26,5.36,2.46,8.13c-0.14,7.01,0.13,14.04-0.27,21.04c0.09,2.23-1.94,1.67-3.13,0.79
		c-9.64-6-19.91-11.05-28.77-18.23C188.99,450.85,190,447.36,189.51,444.49z"/>
</g>
<g>
	<path fill="#2A3C89" d="M554.26,399.73c0.43-1.82,2-2.81,3.58-3.55c-0.99,3.73-3.17,7.01-4.08,10.76
		c-3.1,15.83-6.56,31.61-8.3,47.67c-2.35,12.52-2.54,25.28-3.93,37.92c-0.86-0.28-1.7-0.56-2.54-0.83c2.71,0.54,2.54-3.94-0.15-2.8
		c-0.13-2.1-0.17-4.21-0.12-6.3c0.5-0.58,1.5-1.73,2-2.3c2.18-7.82,0.75-16.13,2.99-23.93c2.13-8.01,0.84-16.44,2.85-24.46
		C549.11,421.19,550.7,410.2,554.26,399.73z"/>
</g>
<g>
	<g>
		<path fill="#2F347C" d="M188.44,420.4c1.85,0.62,3.69,1.31,5.37,2.31c10.14,6.37,20.54,12.33,30.72,18.66
			c-0.14,11.32,0.19,22.65-0.19,33.97c-7.01-2.44-12.63-7.58-19.15-10.99c-5.78-2.91-10.81-7.08-16.64-9.88
			C188.22,443.12,188.4,431.76,188.44,420.4z M189.51,444.49c0.49,2.87-0.52,6.36,1.84,8.62c8.86,7.18,19.13,12.23,28.77,18.23
			c1.19,0.88,3.22,1.44,3.13-0.79c0.4-7,0.13-14.03,0.27-21.04c-0.2-2.77,0.27-6.44-2.46-8.13c-6.27-4.1-12.8-7.78-19.17-11.71
			c-3.46-2.65-7.36-4.6-11.19-6.64C187.38,429.7,188.22,437.42,189.51,444.49z"/>
	</g>
</g>
<g>
	<g>
		<path fill="#1A2F75" d="M261.35,422.85c1.6-0.98,3.31-1.92,5.23-1.98c-0.08,11.21,0.21,22.42-0.13,33.62
			c-11.84,6.68-23.04,14.45-34.94,21c-0.56-11.45-0.18-22.92-0.19-34.37C241.34,435.05,251.41,429.06,261.35,422.85z M261.07,425.48
			c-3.22,1.73-6.64,3.14-9.5,5.47c-5.88,4.4-12.9,7.03-18.59,11.69c-1.13,5.47-0.08,11.27-0.46,16.87
			c0.32,4.52-1.01,9.41,1.06,13.63c6.97-5.58,14.68-10.18,22.54-14.4c3.06-1.46,4.87-4.57,7.96-6.02l1.38,0.23
			c0.16-3.84-1.09-7.64-0.44-11.45c0.59-3.96,0.19-7.96,0.3-11.94c-0.01-2.33,0.37-4.87-1.15-6.84
			C263.13,423.62,262.09,424.55,261.07,425.48z"/>
	</g>
</g>
<g>
	<path fill="#1730BE" d="M261.07,425.48c1.02-0.93,2.06-1.86,3.1-2.76c1.52,1.97,1.14,4.51,1.15,6.84
		c-0.11,3.98,0.29,7.98-0.3,11.94c-0.65,3.81,0.6,7.61,0.44,11.45l-1.38-0.23c-0.71-0.11-2.13-0.33-2.84-0.44
		C260.94,443.35,261.11,434.42,261.07,425.48z"/>
</g>
<g>
	<path fill="#2E4182" d="M771.67,444.19c-0.41-6.42-1.39-13.56,2.77-19.06c0.1,0.41,0.29,1.23,0.39,1.64
		C773.78,432.57,772.98,438.45,771.67,444.19z"/>
</g>
<g>
	<path fill="#1832AF" d="M349.52,460.16c9.11-0.07,18.21,0.04,27.32-0.05c0.71,11.95,0.02,23.94,0.37,35.91
		c1.85,2.86,5.5,2.03,8.38,1.86c7.38-0.83,14.83-0.82,22.22-0.11c0.3,4.35-0.1,8.88,1.53,13.03l0.01,0.05
		c-7.44-0.66-14.91-0.19-22.36-0.3c-12.49,0.07-24.98-0.22-37.46,0.22C349.33,493.9,349.35,477.03,349.52,460.16z"/>
</g>
<g>
	<path fill="#1832B0" d="M190.05,465.49c2.27,0.64,4.63,1.15,6.67,2.38c8.93,6.32,18.63,11.45,27.61,17.7
		c-0.25,9.38,0.32,18.78-0.29,28.15l-0.94,1.02c-2.58-2.36-5.58-4.17-8.74-5.63c-5.74-2.7-10.6-6.87-16.17-9.85
		c-2.84-1.66-6.4-2.98-7.57-6.37C187.01,484.19,188.98,474.51,190.05,465.49z"/>
</g>
<g>
	<path fill="#747EBB" d="M467.14,473.94c0.42-1.6,0.92-3.18,1.33-4.77c0.29,5.1-0.77,10.15-0.99,15.23
		c-0.29,2.75-0.14,5.65-1.24,8.25c-0.65,0.12-1.94,0.37-2.58,0.49l0.33-0.46c0.93-1.09,2.09-2.16,2-3.72
		C466.68,483.98,466.96,478.96,467.14,473.94z"/>
</g>
<g>
	<path fill="#8692C9" d="M224.47,482.47c0.57,10.17,0.02,20.35,0.29,30.53c2.19,0.02,4.38,0.02,6.57,0.03l0.06,0.97
		c-2.45-0.07-4.9-0.11-7.35-0.28c0.61-9.37,0.04-18.77,0.29-28.15C224.37,484.79,224.44,483.25,224.47,482.47z"/>
</g>
<g>
	<path fill="#212F5F" d="M538.84,488.9c2.69-1.14,2.86,3.34,0.15,2.8C538.95,491,538.88,489.6,538.84,488.9z"/>
</g>
<g>
	<path fill="#1D3086" d="M377.21,496.02c11.04-0.25,22.1-0.15,33.15-0.06c-0.4,4.91,1.06,10.25-1.02,14.84
		c-1.63-4.15-1.23-8.68-1.53-13.03c-7.39-0.71-14.84-0.72-22.22,0.11C382.71,498.05,379.06,498.88,377.21,496.02z"/>
</g>
<g>
	<path fill="#BBC8FC" d="M349.53,510.77c12.48-0.44,24.97-0.15,37.46-0.22c7.45,0.11,14.92-0.36,22.36,0.3l0.72,0.06
		c-7.99,1.08-16.06,0.26-24.09,0.43C373.84,511.14,361.63,511.98,349.53,510.77z"/>
</g>
<g>
	<path fill="#1D2F8B" d="M466.11,533.9c7.63-0.49,15.29-0.54,22.93-0.19c105.3-0.06,210.59,0.03,315.89-0.03
		c11.84,0.04,23.69-0.18,35.52,0.25c0.98,4.09,1.4,8.39,0.22,12.5c-0.12,1.18-1.21,2.56-2.53,2.15c-7.66-1.39-15.45-0.6-23.18-0.76
		c-115.01-0.01-230.02-0.03-345.02,0.01c-2.33-0.66-5.44,1.54-4.28,4c1.09,3.61,5.53,1.93,8.28,2.3
		c121.03-0.15,242.07,0.04,363.1-0.08c3-0.23,3.12,3.29,3.4,5.42c0.14,3.22,0.88,8.26-3.4,8.97c-97.65-0.25-195.31,0.01-292.96-0.13
		c-25.99,0.2-51.99-0.42-77.97,0.71c0.03,2.33,0.06,4.67,0.1,7.01c9.61,0.02,19.17,1.05,28.78,0.84
		c114.01-0.02,228.02,0.03,342.02-0.02c1.85-0.19,4.38,0.51,4.49,2.75c0.28,4.45,0.55,9.42-1.98,13.33
		c-2.74,2.36-5.65-0.97-8.58-0.82c-114.65-0.06-229.31,0.02-343.97-0.03c-7.04,0.51-14.08,0.98-21.14,0.73
		c-4.4-4.01-8.08-9.34-14.13-10.93c-1.46-4.56-5.79-7.05-9-10.24c-3.39-2.94-5.94-6.89-10.02-8.96c-1.93-3.04-4.89-5.16-7.15-7.91
		c-1.99,0.07-3.98,0.26-5.96,0.07c-0.54-1.46,0.84-2.53,1.44-3.68c-2.72-2.57-5.28-5.31-8.1-7.77c-9.29,0.4-18.6-0.05-27.91,0.21
		c-20.33-0.4-40.67,0.42-61-0.37c-5.09-0.32-10.31,0.82-15.3-0.48c1.43-0.33,2.87-0.55,4.33-0.67c33.69-0.06,67.4-0.01,101.08-0.1
		c3.89,2.84,6.76,6.83,10.53,9.83c4.46,3.51,8.35,7.64,12.37,11.62c9.64,8.95,19.38,17.79,28.9,26.86
		c124.28,0.13,248.56,0,372.84,0.07c0-4.06-0.01-8.11-0.14-12.15c-106.21,0.08-212.41-0.03-318.61,0.06
		c-18.81-0.13-37.61,0.08-56.42-0.1c0.03-3.77,0.03-7.53,0-11.29c13.13-0.28,26.26-0.07,39.4-0.14
		c111.9,0.06,223.81-0.1,335.72,0.08c0.06-3.68,0.05-7.35,0.04-11.03c-123.91,0.08-247.82-0.01-371.73,0.05
		c-5.56,0.83-2.8-6.5-3.39-9.69c125.04-0.17,250.08-0.04,375.12-0.06c0.01-3.63,0.02-7.25-0.1-10.87
		c-107.54,0.05-215.08,0.01-322.62,0.02c-17.49-0.15-34.99,0.3-52.46-0.23C464.2,534.73,465.47,534.18,466.11,533.9z"/>
</g>
<g>
	<path fill="#233199" d="M384.96,553.64c7.73-0.18,15.5,0.51,23.17-0.72c1.99-0.47,3.96,0.78,4.03,2.92
		c-83.83-0.02-167.66-0.07-251.49,0.03c0.04,3.48,0.02,6.96-0.05,10.44c5.1,0.65,10.24,0.38,15.36,0.41
		c78.96,0.03,157.91-0.03,236.87,0.03c3.34,3.84,8.12,6.52,10.29,11.29c-8.74,1.08-17.49-0.15-26.25,0.38
		c-27.26-0.33-54.54-0.11-81.8-0.11c-2.68-0.02-5.35-0.02-8.02-0.01c-44.38-0.14-88.75,0.07-133.13-0.07
		c-4.44-0.08-8.89,0.88-13.3-0.03c3.7-2.27,8.25-0.86,12.33-1.17c80.36,0.15,160.72,0.02,241.07,0.05c2.08,0.14,4.1-0.4,6.02-1.14
		c-4.79-1.82-7.36-7.95-13.07-7.34c-54.65-0.05-109.31,0.03-163.96-0.02c-25.33,0.1-50.66-0.23-75.98,0.31
		c-3.03-0.19-7.12,0.8-8.67-2.61c-0.26-0.16-0.77-0.47-1.03-0.62c-0.36-4.1,0.43-8.15,2-11.93
		C234.54,553.31,309.75,553.73,384.96,553.64z"/>
</g>
<g>
	<path fill="#FBFDFC" d="M160.67,555.87c83.83-0.1,167.66-0.05,251.49-0.03h0.24c0.49,0.47,1.46,1.4,1.95,1.87
		c6.8,6.67,13.95,12.97,20.79,19.6c4.97,4.11,9.08,9.21,14.44,12.84c-7.18,0.81-14.38,0.43-21.58,0.24
		c-7.97,0.55-15.94-0.19-23.92-0.02c-39.03,0.03-78.05,0.05-117.07,0.07c-12.68-0.34-25.34,0.58-38.01-0.05
		c-21,0.1-42.01-0.22-63.01,0.16c-8.12-0.08-16.31-0.75-24.37,0.47c-1.67-4.07-0.6-8.56-0.98-12.82c4.41,0.91,8.86-0.05,13.3,0.03
		c44.38,0.14,88.75-0.07,133.13,0.07c2.67-0.01,5.34-0.01,8.02,0.01c27.26,0,54.54-0.22,81.8,0.11c8.76-0.53,17.51,0.7,26.25-0.38
		c-2.17-4.77-6.95-7.45-10.29-11.29c-78.96-0.06-157.91,0-236.87-0.03c-5.12-0.03-10.26,0.24-15.36-0.41
		C160.69,562.83,160.71,559.35,160.67,555.87z"/>
</g>
<g>
	<path fill="#253384" d="M830.86,667.34c5.76-2.32,8.62-8.27,13.8-11.38c0.53-0.05,1.59-0.14,2.13-0.18
		c-19.3,19.45-40.7,36.79-63.34,52.2c-22.59,15.38-46.89,27.97-71.69,39.36c-10.62,4.22-20.95,9.23-31.86,12.7
		c-4.31,1.35-8.56,2.89-12.86,4.29c-11.88,4.03-23.84,7.9-36.11,10.56c-4.83,1-9.53,2.83-14.47,3.14c-0.88-0.38-1.76-0.76-2.62-1.15
		c11.84-1.98,23.26-5.8,34.94-8.52c5.31-1.13,10.03-4.02,15.29-5.3c6.22-1.05,11.58-4.63,17.74-5.94
		c12.14-5.2,25.22-8.25,36.67-15.01c8.53-4.19,17.19-8.12,25.61-12.53c5.83-2.99,11.08-6.97,16.93-9.94
		c4.36-1.99,6.93-7.44,12.31-6.91c8.76-6.99,19.02-11.96,27.31-19.59c5.4-5.01,11.97-8.53,17.39-13.52
		C822.37,675.59,827.66,672.46,830.86,667.34z"/>
</g>
<g>
	<path fill="#2A3B90" d="M400.31,665.72c3.5-3.85,9.16-2.35,13.69-3.71c1.37,1.48,2.12,3.35,1.9,5.4
		c-0.24,9.36-0.12,18.72-0.14,28.08c-0.05,5.59,1.95,11.01,1.7,16.61c-0.8,1.84-2.29,3.92-4.48,4.02c-3.72,0.11-7.39-0.6-11.06-1.04
		c4.39-0.58,8.83-0.62,13.26-0.43c-0.15-16.72,0.28-33.44,0.02-50.15c-3.55,0-7.1-0.03-10.65,0.01l-0.46,0.53
		c-5.57,6.47-13.89,10.08-22.07,11.99c0.78-1.35,1.57-2.68,2.38-4C390.63,673.6,395.95,669.71,400.31,665.72z"/>
</g>
<g>
	<path fill="#172F68" d="M584.97,664.57c7.96-1.27,16.16-1.83,24.11-0.12c5.35,2.12,10.75,4.82,14.64,9.14
		c2.85,6.52,3.51,13.86,2.75,20.9c-0.09-3.79-0.08-7.63-1.21-11.28c-0.95-4.91-3.28-9.71-7.51-12.56
		c-8.42-6.29-19.7-6.81-29.67-4.89c-6.22,1.51-13.28,4.59-15.31,11.25c-2.23,4.8,0.37,10.49,4.52,13.31
		c7.49,5.65,17.6,6.82,26.52,4.37c1.66-0.11,3.57-0.75,4.08-2.54c1.25-0.16,2.5-0.31,3.76-0.44c-0.13,1.61-0.22,3.24-0.43,4.86
		c-1.03-0.86-2.05-1.71-3.07-2.55c-3.39,1.9-7.11,3.44-11.09,3c-4.7-0.39-9.87,0.92-14.13-1.61c-4.28-2.28-9.43-4.39-11.2-9.34
		c-2.54-5.04-0.71-10.94,2.49-15.18C577.37,668.16,581.03,665.93,584.97,664.57z"/>
</g>
<g>
	<path fill="#1D2F84" d="M456.42,664.11c9.6-1.24,20.1-1.81,28.77,3.26c6.09,2.85,9.59,9.54,9.66,16.11
		c-0.53-0.74-1.03-1.5-1.5-2.26c-2.07-9.22-11.36-14.69-20.17-15.93c-8.99-1.13-18.85-0.39-26.54,4.87
		c-5.79,3.66-7.92,12.49-3.17,17.84c6.48,6.55,16.54,9.17,25.5,7.38c4.05-0.69,7.44-3.34,11.53-3.91c-0.15,1.32-0.25,2.68-0.46,4.02
		c-0.55-0.45-1.65-1.34-2.2-1.78c-6.46,3.58-14.19,6.09-21.44,3.31c-6.95-0.82-13.57-4.9-16.59-11.33
		c-1.54-4.91-0.04-10.36,2.77-14.53C445.52,666.38,451.6,665.87,456.42,664.11z"/>
</g>
<g>
	<g>
		<path fill="#F9FBF8" d="M446.64,670.16c7.69-5.26,17.55-6,26.54-4.87c8.81,1.24,18.1,6.71,20.17,15.93
			c1.12,6.18,1.21,12.72-1.11,18.66c-2.54,5.66-7.73,9.73-13.53,11.71c-8.89,2.82-18.59,2.73-27.47-0.09
			c-3.25-0.96-5.41-3.67-7.82-5.85c0.33-0.59,1-1.78,1.33-2.37c3.4,0.9,6.9,0.13,10.31-0.3c4.28,7.6,14.6,6.04,21.18,2.67
			c1.8-2.89,3.07-6.08,3.65-9.44l0.15-0.72c0.21-1.34,0.31-2.7,0.46-4.02c-4.09,0.57-7.48,3.22-11.53,3.91
			c-8.96,1.79-19.02-0.83-25.5-7.38C438.72,682.65,440.85,673.82,446.64,670.16z M461.63,670.46c-5.28,1.03-9.13,6.77-7.72,12.04
			c0.43,3.22,2.35,6.29,5.46,7.51c4.71,1.82,10.32,1.93,14.92-0.26c6.19-3.26,5.94-12.96,0.54-16.82
			C470.89,670.56,466.16,669.65,461.63,670.46z"/>
	</g>
</g>
<g>
	<g>
		<path fill="#F9FBF9" d="M588.08,665.76c9.97-1.92,21.25-1.4,29.67,4.89c4.23,2.85,6.56,7.65,7.51,12.56
			c0.21,5.16,0.49,10.46-1.11,15.45c-2.26,5.69-6.9,10.33-12.72,12.31c-8.07,3.08-16.99,3.23-25.4,1.59
			c-2.53-0.54-4.99-1.46-7.11-2.94c-1.29-1.75-2.42-3.6-3.54-5.44c3.8-0.17,7.6-0.2,11.39-0.43c1.5,2.63,4.38,4.09,7.31,4.48
			c4.84,0.61,10.24-0.05,13.99-3.45c2.08-2.21,2.6-5.35,3.15-8.21c0.21-1.62,0.3-3.25,0.43-4.86c-1.26,0.13-2.51,0.28-3.76,0.44
			c-1.73-0.03-3.56,0.77-4.08,2.54c-8.92,2.45-19.03,1.28-26.52-4.37c-4.15-2.82-6.75-8.51-4.52-13.31
			C574.8,670.35,581.86,667.27,588.08,665.76z M586.11,675.25c-2.87,2.8-0.97,7.29-1.37,10.84c0.82,0.46,1.66,0.93,2.5,1.4
			c5.82,5.72,16.79,5.26,22.14-1.03c0.74-3.15,2.26-7.7-0.57-10.1c-0.03-2.18-2.14-3.07-3.74-3.98
			C599.15,668.82,590.3,669.24,586.11,675.25z"/>
	</g>
</g>
<g>
	<path fill="#FCFEF9" d="M382.02,677.03c8.18-1.91,16.5-5.52,22.07-11.99c3.52-0.23,7.05-0.19,10.58-0.14
		c-0.1,16.38,0.06,32.76-0.07,49.13c-4.36-0.05-8.73-0.03-13.09,0.03c0.02-11.2-0.03-22.4,0.02-33.6c0.06-1.3-0.16-2.54-0.65-3.71
		c-0.08-0.25-0.25-0.75-0.33-1.01c-3.53,1.94-7.08,3.9-10.94,5.1c-2.74,0.82-5.53,1.47-8.26,2.31
		C381.02,681.32,379.52,677.78,382.02,677.03z"/>
</g>
<g>
	<path fill="#F8FCF8" d="M517.74,665.83c8.74-0.41,17.48-0.01,26.23-0.22c4.56,0.1,9.13,0.08,13.7,0.07
		c-0.04,2.17-0.04,4.35-0.02,6.54c-9.97-0.09-19.94-0.04-29.91-0.01c-0.71,2.29-1.53,4.57-2.04,6.94c-0.26,1.4-0.45,2.81-0.63,4.24
		c6.27-0.67,12.6-2.41,18.88-0.76c6.84,1.37,15.03,4.25,17.27,11.62c0.33,1.64,0.33,3.33,0.13,5c-2.95,9.39-13.26,13.65-22.36,14.08
		c-10.34,1.39-22.51-0.03-29.66-8.48c-0.04-0.68-0.11-2.03-0.14-2.71c3.9-0.01,7.8-0.23,11.71-0.25c3.63,7.27,13.47,8.45,20.39,5.78
		c4.97-1.61,8.47-7.17,6.73-12.31c-0.81-4.81-5.41-7.92-9.99-8.49c-4.94-0.52-10.06-0.13-14.66,1.85c-4.1,1.98-8.68,0.66-12.98,0.25
		C512.85,681.26,515.61,673.64,517.74,665.83z"/>
</g>
<g>
	<path fill="#1832B3" d="M455.65,684.64c-1.41-5.75,2.38-12.61,8.33-13.81c4.21,1.39,9.02,2.08,11.94,5.82
		c2.9,2.49,0.88,6.44-0.31,9.3c-1.15,3-4.76,3.4-7.52,3.84C463.54,690.11,458.23,688.65,455.65,684.64z"/>
</g>
<g>
	<path fill="#1832B2" d="M588.64,675.13c2.79-3.6,7.9-3.99,12.05-3.15c3.43,1.59,6,4.53,8.54,7.25c-0.1-0.72-0.32-2.16-0.42-2.87
		c2.83,2.4,1.31,6.95,0.57,10.1c-0.14-1.28-0.26-2.55-0.38-3.82c-0.54,1.06-1.08,2.12-1.6,3.2c-2.77,1.39-5.41,3.07-8.34,4.1
		c-3.33,0.5-6.52-1.21-9.25-2.91C585.68,684.7,585.7,678.42,588.64,675.13z"/>
</g>
<g>
	<path fill="#AAB9D6" d="M584.74,686.09c0.4-3.55-1.5-8.04,1.37-10.84c-1.29,4.08-0.84,8.45,1.13,12.24
		C586.4,687.02,585.56,686.55,584.74,686.09z"/>
</g>
<g>
	<path fill="#1D338C" d="M530.07,680.98c4.75-0.32,9.98,0.5,14.22-2.17c4.12,2.56,8.71,4.19,12.97,6.48
		c4.58,2.63,5.51,8.31,5.58,13.13c-0.55-1.39-1.09-2.79-1.62-4.17c-2.24-7.37-10.43-10.25-17.27-11.62
		c-6.28-1.65-12.61,0.09-18.88,0.76c0.18-1.43,0.37-2.84,0.63-4.24C527.05,679.95,528.36,681.21,530.07,680.98z"/>
</g>
<g>
	<path fill="#373F91" d="M523.37,688.72c4.6-1.98,9.72-2.37,14.66-1.85c4.58,0.57,9.18,3.68,9.99,8.49
		c1.74,5.14-1.76,10.7-6.73,12.31c-6.92,2.67-16.76,1.49-20.39-5.78l-0.22-0.33c-4.14-0.29-8.29-0.36-12.44-0.41
		c0.01-0.3,0.02-0.91,0.02-1.21c3.88,0.69,7.73-0.01,11.55-0.68c3.1,0.59,4.13,4.19,6.51,5.9c6.03,3.27,14.08,2.52,18.86-2.62
		c0.21-2.96,1.82-6.34-0.13-9.02c-2.04-3.53-6.36-4.49-10.03-5.38c-5.18-0.45-9.85,2.71-14.98,2.89c-3.22,0.12-6.44,0-9.65,0.06
		c0-0.53,0-1.59,0-2.12C514.69,689.38,519.27,690.7,523.37,688.72z"/>
</g>
<g>
	<path fill="#97A0D9" d="M603.81,694.69c0.52-1.77,2.35-2.57,4.08-2.54C607.38,693.94,605.47,694.58,603.81,694.69z"/>
</g>
<g>
	<path fill="#273980" d="M624.15,698.66c0.54-0.74,1.12-1.45,1.74-2.13c-0.7,6.43-4.99,12.29-10.88,14.95
		c-7.57,4.19-16.53,4.04-24.9,3.53c-1.56-0.27-4.04-0.27-4.08-2.45c8.41,1.64,17.33,1.49,25.4-1.59
		C617.25,708.99,621.89,704.35,624.15,698.66z"/>
</g>
<g>
	<path fill="#2E4081" d="M561.35,699.25c0.14,1.58,0.75,3.26,0.18,4.82c-1.72,2.51-3.98,4.64-6.39,6.49
		c-4.63,3.5-10.67,3.6-16.12,4.83c-4.31,1.08-8.68-0.15-13.01-0.42c-4.99-0.28-9.73-2.11-14.11-4.39c-2.4-1.24-3.27-3.99-4.56-6.17
		c0.49,0.11,1.49,0.33,1.99,0.44c7.15,8.45,19.32,9.87,29.66,8.48C548.09,712.9,558.4,708.64,561.35,699.25z"/>
</g>
<g>
	<path fill="#1F3292" d="M399.22,701.73c0.41-0.05,1.23-0.17,1.64-0.23c0.38,4.4,0.59,8.84-0.19,13.21c-0.8-1.19-2.51-2.3-1.93-3.92
		C399.57,707.83,399.71,704.76,399.22,701.73z"/>
</g>
<g>
	<path fill="#8D9ACF" d="M574.96,703.47c4.36-0.27,8.95-1.17,13.21,0.16l-1.4,0.12c-3.79,0.23-7.59,0.26-11.39,0.43
		c1.12,1.84,2.25,3.69,3.54,5.44C576.77,708.49,574.04,706.01,574.96,703.47z"/>
</g>
<g>
	<path fill="#293771" d="M423.31,785.11c3.56-0.12,7.16-0.3,10.71,0.21c11.03,1.6,22.14,2.82,33.3,2.85
		c6.58,0,13.07,1.07,19.61,1.63c11.71,0.44,23.45-0.41,35.15,0.46l0.79,0.06c-7.26,0.81-14.59,0.41-21.87,0.47
		c-18.66,0.31-37.3-0.92-55.85-2.77C437.81,787.67,430.53,786.31,423.31,785.11z"/>
</g>
</svg>
